<?xml version="1.0" encoding="UTF-8" standalone="no"?>
<!-- Created with Inkscape (http://www.inkscape.org/) -->

<svg
   width="513.33972"
   height="278.94098"
   viewBox="0 0 513.33972 278.94098"
   version="1.1"
   id="svg1"
   xml:space="preserve"
   xmlns="http://www.w3.org/2000/svg"
   xmlns:svg="http://www.w3.org/2000/svg"><defs
     id="defs1" /><g
     id="g20"
     transform="translate(-1527.2593,-34.292598)"><rect
       style="display:none;fill:#f9f9f9;stroke-width:0.778231"
       id="rect15"
       width="515.67297"
       height="279.05045"
       x="1525.9523"
       y="33.480999" /><path
       style="fill:#f8d32b;fill-opacity:1"
       d="m 1839.7378,229.68123 86.4072,-1.12175 47.2398,-90.24136 -19.5694,-39.38968 -64.0075,0.97395 7.0644,13.31313 z"
       id="path15" /><path
       style="fill:#e5b91f;fill-opacity:1"
       d="m 1951.308,102.56035 c 0.3887,1.00446 18.2427,36.6966 18.2427,36.6966 l -46.8782,86.2714 -78.9619,0.7116 -0.3133,-6.03433 -3.929,12.57741 87.4794,-0.81995 49.6145,-92.29589 -16.9812,-37.1297 7.4086,-5.472489 -79.5205,-0.17575 -4.4092,5.873119 3.8121,0.0414 6.3216,10.25983 -13.0852,25.9755 -56.2745,116.26939 11.0824,-7.2873 65.719,-135.67958 -6.2975,-9.85365 z"
       id="path16" /><path
       style="fill:#939dac"
       d="m 1664.3709,216.33182 56.9775,0.51877 36.6372,-81.72515 -16.1841,-34.85687 -92.9111,0.16089 -53.7732,117.1038 9.9905,29.06168 45.3992,-1.47963 z"
       id="path17" /><path
       style="fill:#939dac"
       d="m 1729.3412,246.63285 46.6262,-1.43116 13.2951,-31.09303 57.8681,2.15736 38.6625,-79.01223 -19.9362,-38.437 -92.4466,2.04041 -53.4641,117.47049 z"
       id="path19" /><path
       style="fill:#6f7c91"
       d="m 1667.0544,200.69229 2.9962,-6.34796 8.6921,-5.33412 -10.4206,24.12527 52.5461,-0.11903 -4.383,6.5058 -50.1709,-1.35983 -14.5999,29.99964 -43.1936,0.29171 2.1697,11.40222 -7.933,-10.62331 -11.6949,-29.7263 54.4995,-115.15052 -6.3485,-7.359009 112.8754,-0.82102 -5.0787,6.162849 14.5566,35.33377 -18.5604,37.22965 -8.2756,6.92186 19.8328,-42.48826 -15.0247,-36.56381 -25.1342,-0.16294 -20.4414,38.93211 -9.718,4.20444 4.2531,-8.82944 17.5144,-34.71471 -52.5654,0.39213 -55.3867,116.87761 9.7912,23.35144 40.3686,-0.52441 z"
       id="path18" /><path
       style="fill:#6f7c91"
       d="m 1792.2678,200.7477 2.9962,-6.34796 8.692,-5.33412 -10.4206,24.12527 52.5462,-0.11903 -4.383,6.5058 -50.1709,-1.35983 -14.5999,29.99964 -43.1937,0.29171 2.1697,11.40222 -7.9329,-10.62331 -11.6949,-29.7263 54.4995,-115.15052 -6.3486,-7.359009 112.6405,-0.37706 -4.8437,5.718889 16.4421,35.56383 -37.3642,76.34084 -2.8309,5.53705 -7.3531,-0.12305 38.8752,-81.03588 -15.2404,-35.84956 -25.1343,-0.16294 -20.4414,38.93211 -9.718,4.20444 4.2532,-8.82944 17.5144,-34.71471 -52.5654,0.39213 -55.3868,116.87761 9.7912,23.35144 40.3687,-0.52441 z"
       id="path20" /></g></svg>
