<?xml version="1.0" encoding="UTF-8" standalone="no"?>
<!-- Created with Inkscape (http://www.inkscape.org/) -->

<svg
   width="513.23004"
   height="275.33823"
   viewBox="0 0 513.23004 275.33823"
   version="1.1"
   id="svg1"
   inkscape:version="1.3.2 (091e20ef0f, 2023-11-25, custom)"
   sodipodi:docname="logo.svg"
   xml:space="preserve"
   xmlns:inkscape="http://www.inkscape.org/namespaces/inkscape"
   xmlns:sodipodi="http://sodipodi.sourceforge.net/DTD/sodipodi-0.dtd"
   xmlns:xlink="http://www.w3.org/1999/xlink"
   xmlns="http://www.w3.org/2000/svg"
   xmlns:svg="http://www.w3.org/2000/svg"><sodipodi:namedview
     id="namedview1"
     pagecolor="#505050"
     bordercolor="#eeeeee"
     borderopacity="1"
     inkscape:showpageshadow="0"
     inkscape:pageopacity="0"
     inkscape:pagecheckerboard="0"
     inkscape:deskcolor="#505050"
     inkscape:document-units="px"
     inkscape:zoom="0.70710678"
     inkscape:cx="-94.045201"
     inkscape:cy="596.79812"
     inkscape:window-width="2699"
     inkscape:window-height="1846"
     inkscape:window-x="26"
     inkscape:window-y="23"
     inkscape:window-maximized="0"
     inkscape:current-layer="g11"
     showguides="false"><inkscape:page
       x="64.503983"
       y="60.34425"
       width="385.92368"
       height="148.29019"
       id="page12"
       margin="0 0 0"
       bleed="0"
       inkscape:export-filename="logo_light.png"
       inkscape:export-xdpi="96"
       inkscape:export-ydpi="96"
       inkscape:label="logo_dark" /><inkscape:page
       x="64.473228"
       y="416.36536"
       width="386.47089"
       height="148.6409"
       id="page20"
       inkscape:label="logo_light"
       margin="0 0 0 0"
       bleed="0"
       inkscape:export-filename="logo_dark.svg"
       inkscape:export-xdpi="96"
       inkscape:export-ydpi="96" /><inkscape:page
       x="605.79535"
       y="2.7397909"
       width="660"
       height="930"
       id="page21"
       margin="0"
       bleed="0"
       inkscape:label="poster" /><sodipodi:guide
       position="270.61476,67.469135"
       orientation="0,-1"
       id="guide2"
       inkscape:locked="false" /><sodipodi:guide
       position="301.9876,121.36112"
       orientation="0,-1"
       id="guide3"
       inkscape:locked="false" /><sodipodi:guide
       position="319.50249,164.28224"
       orientation="0,-1"
       id="guide4"
       inkscape:locked="false" /><sodipodi:guide
       position="225.76893,127.52021"
       orientation="1,0"
       id="guide5"
       inkscape:locked="false" /><sodipodi:guide
       position="239.04946,154.08126"
       orientation="1,0"
       id="guide6"
       inkscape:locked="false" /><sodipodi:guide
       position="351.64521,170.05638"
       orientation="1,0"
       id="guide7"
       inkscape:locked="false" /><sodipodi:guide
       position="366.78362,188.09953"
       orientation="1,0"
       id="guide8"
       inkscape:locked="false" /><sodipodi:guide
       position="383.11429,214.42104"
       orientation="0,-1"
       id="guide9"
       inkscape:locked="false" /><inkscape:page
       x="1402.688"
       y="4.5720367"
       width="660"
       height="930"
       id="page73"
       margin="0"
       bleed="0"
       inkscape:label="poster_oem"
       inkscape:export-filename="poster.svg"
       inkscape:export-xdpi="96"
       inkscape:export-ydpi="96" /><inkscape:page
       x="78.840645"
       y="740.76392"
       width="385.2486"
       height="147.70767"
       id="page57"
       margin="0"
       bleed="0"
       inkscape:label="favicon" /></sodipodi:namedview><defs
     id="defs1"><linearGradient
       id="linearGradient85"
       inkscape:collect="always"><stop
         style="stop-color:#2a2a5d;stop-opacity:1;"
         offset="0.60097265"
         id="stop84" /><stop
         style="stop-color:#1b1b39;stop-opacity:1;"
         offset="1"
         id="stop85" /></linearGradient><linearGradient
       id="linearGradient114"
       inkscape:collect="always"><stop
         style="stop-color:#333333;stop-opacity:1;"
         offset="0.60097265"
         id="stop116" /><stop
         style="stop-color:#2a2a2a;stop-opacity:1;"
         offset="1"
         id="stop115" /></linearGradient><linearGradient
       id="swatch114"><stop
         style="stop-color:#b3b3b3;stop-opacity:1;"
         offset="0"
         id="stop114" /></linearGradient><filter
       style="color-interpolation-filters:sRGB"
       inkscape:label="Drop Shadow"
       id="filter75"
       x="-0.12753789"
       y="-0.1288995"
       width="1.2902593"
       height="1.2876089"><feFlood
         result="flood"
         in="SourceGraphic"
         flood-opacity="0.341176"
         flood-color="rgb(0,0,0)"
         id="feFlood74" /><feGaussianBlur
         result="blur"
         in="SourceGraphic"
         stdDeviation="20.462362"
         id="feGaussianBlur74" /><feOffset
         result="offset"
         in="blur"
         dx="13.547751"
         dy="11.357330"
         id="feOffset74" /><feComposite
         result="comp1"
         operator="in"
         in="flood"
         in2="offset"
         id="feComposite74" /><feComposite
         result="comp2"
         operator="over"
         in="SourceGraphic"
         in2="comp1"
         id="feComposite75" /></filter><filter
       style="color-interpolation-filters:sRGB"
       inkscape:label="Drop Shadow"
       id="filter101"
       x="-0.044233135"
       y="-0.10414323"
       width="1.1110491"
       height="1.2631653"><feFlood
         result="flood"
         in="SourceGraphic"
         flood-opacity="0.227451"
         flood-color="rgb(0,0,0)"
         id="feFlood100" /><feGaussianBlur
         result="blur"
         in="SourceGraphic"
         stdDeviation="7.104953"
         id="feGaussianBlur100" /><feOffset
         result="offset"
         in="blur"
         dx="8.705705"
         dy="8.985592"
         id="feOffset100" /><feComposite
         result="comp1"
         operator="in"
         in="flood"
         in2="offset"
         id="feComposite100" /><feComposite
         result="comp2"
         operator="over"
         in="SourceGraphic"
         in2="comp1"
         id="feComposite101" /></filter><radialGradient
       inkscape:collect="always"
       xlink:href="#linearGradient114"
       id="radialGradient116"
       cx="1857.9578"
       cy="501.34222"
       fx="1857.9578"
       fy="501.34222"
       r="332.00555"
       gradientTransform="matrix(1,0,0,1.4091969,0,-205.14769)"
       gradientUnits="userSpaceOnUse" /><filter
       style="color-interpolation-filters:sRGB;"
       inkscape:label="Drop Shadow"
       id="filter71"
       x="-0.28257248"
       y="-0.73827617"
       width="1.6112858"
       height="2.6138803"><feFlood
         result="flood"
         in="SourceGraphic"
         flood-opacity="0.364706"
         flood-color="rgb(0,0,0)"
         id="feFlood70" /><feGaussianBlur
         result="blur"
         in="SourceGraphic"
         stdDeviation="22.670990"
         id="feGaussianBlur70" /><feOffset
         result="offset"
         in="blur"
         dx="8.884589"
         dy="10.120960"
         id="feOffset70" /><feComposite
         result="comp1"
         operator="in"
         in="flood"
         in2="offset"
         id="feComposite70" /><feComposite
         result="fbSourceGraphic"
         operator="over"
         in="SourceGraphic"
         in2="comp1"
         id="feComposite71" /><feColorMatrix
         result="fbSourceGraphicAlpha"
         in="fbSourceGraphic"
         values="0 0 0 -1 0 0 0 0 -1 0 0 0 0 -1 0 0 0 0 1 0"
         id="feColorMatrix71" /><feFlood
         id="feFlood71"
         result="flood"
         in="fbSourceGraphic"
         flood-opacity="0.364706"
         flood-color="rgb(0,0,0)" /><feGaussianBlur
         id="feGaussianBlur71"
         result="blur"
         in="fbSourceGraphic"
         stdDeviation="22.670990" /><feOffset
         id="feOffset71"
         result="offset"
         in="blur"
         dx="8.884589"
         dy="10.120960" /><feComposite
         id="feComposite72"
         result="comp1"
         operator="in"
         in="flood"
         in2="offset" /><feComposite
         id="feComposite73"
         result="comp2"
         operator="over"
         in="fbSourceGraphic"
         in2="comp1" /></filter><radialGradient
       inkscape:collect="always"
       xlink:href="#linearGradient85"
       id="radialGradient83"
       gradientUnits="userSpaceOnUse"
       gradientTransform="matrix(1,0,0,1.4091969,0,-205.14769)"
       cx="1857.9578"
       cy="501.34222"
       fx="1857.9578"
       fy="501.34222"
       r="332.00555" /></defs><g
     inkscape:label="light_old"
     inkscape:groupmode="layer"
     id="g20"
     transform="translate(-2079.4744,651.35328)"><rect
       style="display:inline;fill:#f9f9f9;stroke-width:0.778231"
       id="rect15"
       width="515.67297"
       height="279.05045"
       x="1391.5726"
       y="-306.04904" /><path
       style="fill:#f8d32b;fill-opacity:1"
       d="m 1705.3582,-109.8488 86.4072,-1.12175 47.2398,-90.24136 -19.5694,-39.38968 -64.0075,0.97395 7.0644,13.31313 z"
       id="path15"
       inkscape:label="din" /><path
       style="fill:#e5b91f;fill-opacity:1"
       d="m 1816.9284,-236.96968 c 0.3887,1.00446 18.2427,36.6966 18.2427,36.6966 l -46.8782,86.2714 -78.9619,0.7116 -0.3133,-6.03433 -3.929,12.57741 87.4794,-0.81995 49.6145,-92.29589 -16.9812,-37.1297 7.4086,-5.47249 -79.5205,-0.17575 -4.4092,5.87312 3.8121,0.0414 6.3216,10.25983 -13.0852,25.9755 -56.2745,116.269386 11.0824,-7.2873 65.719,-135.679576 -6.2975,-9.85365 z"
       id="path16"
       sodipodi:nodetypes="cccccccccccccccccccc"
       inkscape:label="d" /><path
       style="fill:#939dac"
       d="m 1529.9913,-123.19821 56.9775,0.51877 36.6372,-81.72515 -16.1841,-34.85687 -92.9111,0.16089 -53.7732,117.1038 9.9905,29.061676 45.3992,-1.47963 z"
       id="path17"
       inkscape:label="h1in" /><path
       style="fill:#939dac"
       d="m 1594.9616,-92.897184 46.6262,-1.43116 13.2951,-31.093026 57.8681,2.15736 38.6625,-79.01223 -19.9362,-38.437 -92.4466,2.04041 -53.4641,117.47049 z"
       id="path19"
       inkscape:label="h2in" /><path
       style="fill:#6f7c91"
       d="m 1532.6748,-138.83774 2.9962,-6.34796 8.6921,-5.33412 -10.4206,24.12527 52.5461,-0.11903 -4.383,6.5058 -50.1709,-1.35983 -14.5999,29.999636 -43.1936,0.29171 2.1697,11.40222 -7.933,-10.62331 -11.6949,-29.726296 54.4995,-115.15052 -6.3485,-7.35901 112.8754,-0.82102 -5.0787,6.16285 14.5566,35.33377 -18.5604,37.22965 -8.2756,6.92186 19.8328,-42.48826 -15.0247,-36.56381 -25.1342,-0.16294 -20.4414,38.93211 -9.718,4.20444 4.2531,-8.82944 17.5144,-34.71471 -52.5654,0.39213 -55.3867,116.87761 9.7912,23.351436 40.3686,-0.52441 z"
       id="path18"
       sodipodi:nodetypes="ccccccccccccccccccccccccccccccc"
       inkscape:label="h1" /><path
       style="fill:#6f7c91"
       d="m 1657.8882,-138.78233 2.9962,-6.34796 8.692,-5.33412 -10.4206,24.12527 52.5462,-0.11903 -4.383,6.5058 -50.1709,-1.35983 -14.5999,29.999636 -43.1937,0.29171 2.1697,11.40222 -7.9329,-10.62331 -11.6949,-29.726296 54.4995,-115.15052 -6.3486,-7.35901 112.6405,-0.37706 -4.8437,5.71889 16.4421,35.56383 -37.3642,76.34084 -2.8309,5.53705 -7.3531,-0.12305 38.8752,-81.03588 -15.2404,-35.84956 -25.1343,-0.16294 -20.4414,38.93211 -9.718,4.20444 4.2532,-8.82944 17.5144,-34.71471 -52.5654,0.39213 -55.3868,116.87761 9.7912,23.351436 40.3687,-0.52441 z"
       id="path20"
       sodipodi:nodetypes="cccccccccccccccccccccccccccccccc"
       inkscape:label="h2" /></g><g
     inkscape:label="initial"
     inkscape:groupmode="layer"
     id="layer1"
     transform="translate(-1247.2443,-356.66848)"><path
       style="fill:#f9f9f9"
       d="m 999.22332,475.76101 c 0.3887,1.00446 16.15918,36.3218 16.15918,36.3218 l -45.69688,85.5723 -48.1507,0.20708 -2.695,-5.93917 -3.6695,6.62195 -17.3299,31.1351 10.474,-7.2548 10.344,-17.84297 55.3022,-0.49246 49.61448,-92.29589 -16.9811,-37.1297 7.4086,-5.47249 -70.02218,-0.13078 -0.673,-7.84947 -10.1829,13.84727 z"
       id="path5"
       sodipodi:nodetypes="ccccccccccccccccc"
       inkscape:label="d" /><path
       style="fill:#f9f9f9"
       d="m 834.69019,594.24502 9.91245,-3.84143 -17.90466,30.61759 -46.01081,-0.1827 2.16973,11.40222 -7.93297,-10.62331 -11.69489,-29.7263 54.49947,-115.15052 -6.34855,-7.35901 112.87546,-0.82102 -5.0787,6.16285 15.0618,35.84502 -21.9354,37.0056 -11.7483,4.68664 25.5091,-41.23494 -14.3585,-35.86911 -25.1342,-0.16294 -20.4415,38.93211 -9.71795,4.20444 4.25316,-8.82944 17.51439,-34.71471 -52.56538,0.39213 -55.38677,116.87761 9.79123,23.35144 43.18577,-0.05 z"
       id="path4-2"
       sodipodi:nodetypes="cccccccccccccccccccccccccc"
       inkscape:label="h2" /><path
       style="fill:#f9f9f9"
       d="m 709.53688,593.98707 9.91245,-3.84143 -17.90467,30.61759 -46.0108,-0.1827 2.16973,11.40222 -7.93297,-10.62331 -11.69489,-29.7263 54.49947,-115.15052 -6.34855,-7.35901 112.87544,-0.82102 -5.07869,6.16285 14.55654,35.33377 -18.5604,37.22965 -8.27552,6.92186 19.83271,-42.48826 -15.02462,-36.56381 -25.13424,-0.16294 -20.44143,38.93211 -9.71798,4.20444 4.25316,-8.82944 17.51439,-34.71471 -52.56539,0.39213 -55.38676,116.87761 9.79123,23.35144 43.18577,-0.05 z"
       id="path4"
       sodipodi:nodetypes="cccccccccccccccccccccccccc"
       inkscape:label="h1" /></g><g
     inkscape:groupmode="layer"
     id="layer2"
     inkscape:label="favicon"
     transform="translate(-1585.166,788.23721)"><g
       id="g57"
       style="display:inline"
       transform="translate(72.625199,-144.02126)"><path
         style="fill:#ac8a00;fill-opacity:1"
         d="m 1839.7378,229.68123 86.4072,-1.12175 47.2398,-90.24136 -19.5694,-39.38968 -50.999,0.935672 -5.9441,13.351408 z"
         id="path51"
         inkscape:label="din"
         sodipodi:nodetypes="ccccccc" /><path
         style="fill:#e4bc1b;fill-opacity:1"
         d="m 1951.308,102.56035 c 0.3887,1.00446 18.2427,36.6966 18.2427,36.6966 l -46.8782,86.2714 -78.9619,0.7116 -0.3133,-6.03433 -3.929,12.57741 87.4794,-0.81995 49.6145,-92.29589 -16.9812,-37.1297 7.5448,-5.673419 -68.5406,0.0078 -7.2001,0.0096 6.5358,6.127989 -4.7273,10.05409 -13.0852,25.9755 -50.6137,104.65964 11.0824,-7.2873 60.0582,-124.06983 4.7514,-9.64791 z"
         id="path52"
         sodipodi:nodetypes="cccccccccccccccccccc"
         inkscape:label="d" /><path
         style="display:inline;fill:#b3b3b3"
         d="m 1664.7622,217.6189 56.9775,0.51877 36.6372,-81.72515 -16.1841,-34.85687 -92.9111,0.16089 -53.7732,117.1038 5.8177,11.24722 58.9144,-3.53651 z"
         id="path53"
         inkscape:label="h1in"
         sodipodi:nodetypes="ccccccccc" /><path
         style="fill:#f9f9f9"
         d="m 1667.4457,201.97937 2.9962,-6.34796 8.6921,-5.33412 -10.4206,24.12527 52.5461,-0.11903 -4.383,6.5058 -50.1709,-1.35983 -5.059,10.28018 -59.0412,3.13185 2.1697,11.40222 -7.933,-10.62331 -5.3882,-12.84698 54.4995,-115.15052 -6.3485,-7.359007 112.8754,-0.82102 -5.0787,6.162847 14.5566,35.33377 -39.7913,81.99514 -5.692,-0.17252 38.4801,-80.15937 -15.0247,-36.56381 -25.1342,-0.16294 -20.4414,38.93211 -9.718,4.20444 4.2531,-8.82944 17.5144,-34.71471 -52.5654,0.39213 -55.3867,116.87761 3.4845,6.47212 56.2162,-3.36455 z"
         id="path54"
         sodipodi:nodetypes="ccccccccccccccccccccccccccccccc"
         inkscape:label="h1" /><path
         style="display:inline;fill:#b3b3b3"
         d="m 1790.7701,217.072 56.9775,0.51877 36.6372,-81.72515 -16.1841,-34.85687 -92.9111,0.16089 -53.7732,117.1038 5.8177,11.24722 58.9144,-3.53651 z"
         id="path55"
         inkscape:label="h1in"
         sodipodi:nodetypes="ccccccccc" /><path
         style="fill:#f9f9f9"
         d="m 1793.4536,201.43247 2.9962,-6.34796 8.6921,-5.33412 -10.4206,24.12527 52.5461,-0.11903 -4.383,6.5058 -50.1709,-1.35983 -5.059,10.28018 -59.0412,3.13185 2.1697,11.40222 -7.933,-10.62331 -5.3882,-12.84698 54.4995,-115.15052 -6.3485,-7.359001 112.8754,-0.82102 -5.0787,6.162841 14.5566,35.33377 -39.7913,81.99514 -5.692,-0.17252 38.4801,-80.15937 -15.0247,-36.56381 -25.1342,-0.16294 -20.4414,38.93211 -9.718,4.20444 4.2531,-8.82944 17.5144,-34.71471 -52.5654,0.39213 -55.3867,116.87761 3.4845,6.47212 56.2162,-3.36455 z"
         id="path56"
         sodipodi:nodetypes="ccccccccccccccccccccccccccccccc"
         inkscape:label="h1" /><path
         style="fill:#e4bc1b;fill-opacity:1"
         d="m 1921.2469,149.51983 -22.9022,40.53048 9.2342,-3.05211 22.546,-40.15122 z"
         id="path57"
         sodipodi:nodetypes="ccccc" /></g></g><g
     inkscape:label="dark"
     inkscape:groupmode="layer"
     id="g11"
     transform="translate(-1526.5844,-35.903137)"
     style="display:inline"><rect
       style="display:inline;fill:#333333;stroke-width:0.778231"
       id="rect12"
       width="515.67297"
       height="279.05045"
       x="1525.9523"
       y="33.480999" /><g
       id="g39"
       style="display:inline"><path
         style="fill:#ac8a00;fill-opacity:1"
         d="m 1839.7378,229.68123 86.4072,-1.12175 47.2398,-90.24136 -19.5694,-39.38968 -50.999,0.935672 -5.9441,13.351408 z"
         id="path12"
         inkscape:label="din"
         sodipodi:nodetypes="ccccccc" /><path
         style="fill:#e4bc1b;fill-opacity:1"
         d="m 1951.308,102.56035 c 0.3887,1.00446 18.2427,36.6966 18.2427,36.6966 l -46.8782,86.2714 -78.9619,0.7116 -0.3133,-6.03433 -3.929,12.57741 87.4794,-0.81995 49.6145,-92.29589 -16.9812,-37.1297 7.5448,-5.673419 -68.5406,0.0078 -7.2001,0.0096 6.5358,6.127989 -4.7273,10.05409 -13.0852,25.9755 -50.6137,104.65964 11.0824,-7.2873 60.0582,-124.06983 4.7514,-9.64791 z"
         id="path9"
         sodipodi:nodetypes="cccccccccccccccccccc"
         inkscape:label="d" /><path
         style="display:inline;fill:#b3b3b3"
         d="m 1664.7622,217.6189 56.9775,0.51877 36.6372,-81.72515 -16.1841,-34.85687 -92.9111,0.16089 -53.7732,117.1038 5.8177,11.24722 58.9144,-3.53651 z"
         id="path14"
         inkscape:label="h1in"
         sodipodi:nodetypes="ccccccccc" /><path
         style="fill:#f9f9f9"
         d="m 1667.4457,201.97937 2.9962,-6.34796 8.6921,-5.33412 -10.4206,24.12527 52.5461,-0.11903 -4.383,6.5058 -50.1709,-1.35983 -5.059,10.28018 -59.0412,3.13185 2.1697,11.40222 -7.933,-10.62331 -5.3882,-12.84698 54.4995,-115.15052 -6.3485,-7.359007 112.8754,-0.82102 -5.0787,6.162847 14.5566,35.33377 -39.7913,81.99514 -5.692,-0.17252 38.4801,-80.15937 -15.0247,-36.56381 -25.1342,-0.16294 -20.4414,38.93211 -9.718,4.20444 4.2531,-8.82944 17.5144,-34.71471 -52.5654,0.39213 -55.3867,116.87761 3.4845,6.47212 56.2162,-3.36455 z"
         id="path10"
         sodipodi:nodetypes="ccccccccccccccccccccccccccccccc"
         inkscape:label="h1" /><path
         style="display:inline;fill:#b3b3b3"
         d="m 1790.7701,217.072 56.9775,0.51877 36.6372,-81.72515 -16.1841,-34.85687 -92.9111,0.16089 -53.7732,117.1038 5.8177,11.24722 58.9144,-3.53651 z"
         id="path2"
         inkscape:label="h1in"
         sodipodi:nodetypes="ccccccccc" /><path
         style="fill:#f9f9f9"
         d="m 1793.4536,201.43247 2.9962,-6.34796 8.6921,-5.33412 -10.4206,24.12527 52.5461,-0.11903 -4.383,6.5058 -50.1709,-1.35983 -5.059,10.28018 -59.0412,3.13185 2.1697,11.40222 -7.933,-10.62331 -5.3882,-12.84698 54.4995,-115.15052 -6.3485,-7.359001 112.8754,-0.82102 -5.0787,6.162841 14.5566,35.33377 -39.7913,81.99514 -5.692,-0.17252 38.4801,-80.15937 -15.0247,-36.56381 -25.1342,-0.16294 -20.4414,38.93211 -9.718,4.20444 4.2531,-8.82944 17.5144,-34.71471 -52.5654,0.39213 -55.3867,116.87761 3.4845,6.47212 56.2162,-3.36455 z"
         id="path1"
         sodipodi:nodetypes="ccccccccccccccccccccccccccccccc"
         inkscape:label="h1" /><path
         style="fill:#e4bc1b;fill-opacity:1"
         d="m 1921.2469,149.51983 -22.9022,40.53048 9.2342,-3.05211 22.546,-40.15122 z"
         id="path3"
         sodipodi:nodetypes="ccccc" /></g></g><g
     inkscape:label="light"
     inkscape:groupmode="layer"
     id="g38"
     transform="translate(-1526.7363,320.75535)"
     style="display:inline"><rect
       style="display:inline;fill:#f9f9f9;stroke-width:0.778231"
       id="rect32"
       width="515.67297"
       height="279.05045"
       x="1525.9523"
       y="33.480999" /><path
       style="fill:#f8d32b;fill-opacity:1"
       d="m 1839.7378,229.68123 86.4072,-1.12175 47.2398,-90.24136 -19.5694,-39.38968 -50.999,0.935672 -5.9441,13.351408 z"
       id="path32"
       inkscape:label="din"
       sodipodi:nodetypes="ccccccc" /><path
       style="fill:#e5b91f;fill-opacity:1"
       d="m 1951.308,102.56035 c 0.3887,1.00446 18.2427,36.6966 18.2427,36.6966 l -46.8782,86.2714 -78.9619,0.7116 -0.3133,-6.03433 -3.929,12.57741 87.4794,-0.81995 49.6145,-92.29589 -16.9812,-37.1297 7.5448,-5.673419 -68.5406,0.0078 -7.2001,0.0096 6.5358,6.127989 -4.7273,10.05409 -13.0852,25.9755 -50.6137,104.65964 11.0824,-7.2873 60.0582,-124.06983 4.7514,-9.64791 z"
       id="path33"
       sodipodi:nodetypes="cccccccccccccccccccc"
       inkscape:label="d" /><path
       style="display:inline;fill:#c0c7cf;fill-opacity:1"
       d="m 1664.7622,217.6189 56.9775,0.51877 36.6372,-81.72515 -16.1841,-34.85687 -92.9111,0.16089 -53.7732,117.1038 5.8177,11.24722 58.9144,-3.53651 z"
       id="path34"
       inkscape:label="h1in"
       sodipodi:nodetypes="ccccccccc" /><path
       style="fill:#929bac;fill-opacity:1"
       d="m 1667.4457,201.97937 2.9962,-6.34796 8.6921,-5.33412 -10.4206,24.12527 52.5461,-0.11903 -4.383,6.5058 -50.1709,-1.35983 -5.059,10.28018 -59.0412,3.13185 2.1697,11.40222 -7.933,-10.62331 -5.3882,-12.84698 54.4995,-115.15052 -6.3485,-7.359007 112.8754,-0.82102 -5.0787,6.162847 14.5566,35.33377 -39.7913,81.99514 -5.692,-0.17252 38.4801,-80.15937 -15.0247,-36.56381 -25.1342,-0.16294 -20.4414,38.93211 -9.718,4.20444 4.2531,-8.82944 17.5144,-34.71471 -52.5654,0.39213 -55.3867,116.87761 3.4845,6.47212 56.2162,-3.36455 z"
       id="path35"
       sodipodi:nodetypes="ccccccccccccccccccccccccccccccc"
       inkscape:label="h1" /><path
       style="display:inline;fill:#c0c7cf;fill-opacity:1"
       d="m 1790.7701,217.072 56.9775,0.51877 36.6372,-81.72515 -16.1841,-34.85687 -92.9111,0.16089 -53.7732,117.1038 5.8177,11.24722 58.9144,-3.53651 z"
       id="path36"
       inkscape:label="h1in"
       sodipodi:nodetypes="ccccccccc" /><path
       style="fill:#929bac;fill-opacity:1"
       d="m 1793.4536,201.43247 2.9962,-6.34796 8.6921,-5.33412 -10.4206,24.12527 52.5461,-0.11903 -4.383,6.5058 -50.1709,-1.35983 -5.059,10.28018 -59.0412,3.13185 2.1697,11.40222 -7.933,-10.62331 -5.3882,-12.84698 54.4995,-115.15052 -6.3485,-7.359001 112.8754,-0.82102 -5.0787,6.162841 14.5566,35.33377 -39.7913,81.99514 -5.692,-0.17252 38.4801,-80.15937 -15.0247,-36.56381 -25.1342,-0.16294 -20.4414,38.93211 -9.718,4.20444 4.2531,-8.82944 17.5144,-34.71471 -52.5654,0.39213 -55.3867,116.87761 3.4845,6.47212 56.2162,-3.36455 z"
       id="path37"
       sodipodi:nodetypes="ccccccccccccccccccccccccccccccc"
       inkscape:label="h1" /><path
       style="fill:#e5b91f;fill-opacity:1"
       d="m 1921.2469,149.51983 -22.9022,40.53048 9.2342,-3.05211 22.546,-40.15122 z"
       id="path38"
       sodipodi:nodetypes="ccccc" /></g><g
     inkscape:label="poster"
     inkscape:groupmode="layer"
     id="g26"
     transform="translate(-919.80075,-31.730888)"><rect
       style="fill:url(#radialGradient116);fill-opacity:1;fill-rule:nonzero;stroke-width:1.61712"
       id="rect21"
       width="664.01111"
       height="935.72241"
       x="1525.9523"
       y="33.480999" /><path
       id="path46"
       style="fill:#ac8a00;fill-opacity:1;filter:url(#filter71)"
       inkscape:label="shadow"
       d="M 1967.1264 96.864735 L 1898.5853 96.872547 L 1891.3842 96.882313 L 1897.9213 103.00927 L 1893.1928 113.06395 L 1884.5736 130.17723 L 1873.4096 103.07958 L 1878.4877 96.915516 L 1765.6127 97.737782 L 1771.9603 105.0952 L 1759.1537 132.1538 L 1747.4018 103.62645 L 1752.4799 97.462391 L 1639.6049 98.284657 L 1645.9525 105.64208 L 1591.4545 220.79442 L 1596.8412 233.64013 L 1604.7748 244.26317 L 1602.6049 232.86083 L 1661.6459 229.72997 L 1666.7064 219.44872 L 1716.8764 220.81005 L 1716.8861 220.79442 L 1717.7025 220.81981 L 1722.851 233.09325 L 1730.7826 243.7163 L 1728.6127 232.31395 L 1787.6537 229.18309 L 1792.7143 218.90184 L 1840.8549 220.20848 L 1829.4955 243.69872 L 1840.5775 236.41161 L 1842.3471 232.75536 L 1926.9486 231.96239 L 1976.5619 139.66747 L 1959.5814 102.53661 L 1967.1264 96.864735 z "
       transform="translate(73.94978,37.256778)" /><g
       id="g45"
       transform="translate(73.949775,37.256778)"
       inkscape:label="logo"><path
         style="fill:#ac8a00;fill-opacity:1"
         d="m 1839.7378,229.68123 86.4072,-1.12175 47.2398,-90.24136 -19.5694,-39.38968 -50.999,0.935672 -5.9441,13.351408 z"
         id="path39"
         inkscape:label="din"
         sodipodi:nodetypes="ccccccc" /><path
         style="fill:#e4bc1b;fill-opacity:1"
         d="m 1951.308,102.56035 c 0.3887,1.00446 18.2427,36.6966 18.2427,36.6966 l -46.8782,86.2714 -78.9619,0.7116 -0.3133,-6.03433 -3.929,12.57741 87.4794,-0.81995 49.6145,-92.29589 -16.9812,-37.1297 7.5448,-5.673419 -68.5406,0.0078 -7.2001,0.0096 6.5358,6.127989 -4.7273,10.05409 -13.0852,25.9755 -50.6137,104.65964 11.0824,-7.2873 60.0582,-124.06983 4.7514,-9.64791 z"
         id="path40"
         sodipodi:nodetypes="cccccccccccccccccccc"
         inkscape:label="d" /><path
         style="fill:#e4bc1b;fill-opacity:1"
         d="m 1921.2469,149.51983 -22.9022,40.53048 9.2342,-3.05211 22.546,-40.15122 z"
         id="path45"
         sodipodi:nodetypes="ccccc"
         inkscape:label="dinner" /><path
         style="display:inline;fill:#b3b3b3"
         d="m 1664.7622,217.6189 56.9775,0.51877 36.6372,-81.72515 -16.1841,-34.85687 -92.9111,0.16089 -53.7732,117.1038 5.8177,11.24722 58.9144,-3.53651 z"
         id="path41"
         inkscape:label="h1in"
         sodipodi:nodetypes="ccccccccc" /><path
         style="fill:#f9f9f9"
         d="m 1667.4457,201.97937 2.9962,-6.34796 8.6921,-5.33412 -10.4206,24.12527 52.5461,-0.11903 -4.383,6.5058 -50.1709,-1.35983 -5.059,10.28018 -59.0412,3.13185 2.1697,11.40222 -7.933,-10.62331 -5.3882,-12.84698 54.4995,-115.15052 -6.3485,-7.359007 112.8754,-0.82102 -5.0787,6.162847 14.5566,35.33377 -39.7913,81.99514 -5.692,-0.17252 38.4801,-80.15937 -15.0247,-36.56381 -25.1342,-0.16294 -20.4414,38.93211 -9.718,4.20444 4.2531,-8.82944 17.5144,-34.71471 -52.5654,0.39213 -55.3867,116.87761 3.4845,6.47212 56.2162,-3.36455 z"
         id="path42"
         sodipodi:nodetypes="ccccccccccccccccccccccccccccccc"
         inkscape:label="h1" /><path
         style="display:inline;fill:#b3b3b3"
         d="m 1790.7701,217.072 56.9775,0.51877 36.6372,-81.72515 -16.1841,-34.85687 -92.9111,0.16089 -53.7732,117.1038 5.8177,11.24722 58.9144,-3.53651 z"
         id="path43"
         inkscape:label="h1in"
         sodipodi:nodetypes="ccccccccc" /><path
         style="fill:#f9f9f9"
         d="m 1793.4536,201.43247 2.9962,-6.34796 8.6921,-5.33412 -10.4206,24.12527 52.5461,-0.11903 -4.383,6.5058 -50.1709,-1.35983 -5.059,10.28018 -59.0412,3.13185 2.1697,11.40222 -7.933,-10.62331 -5.3882,-12.84698 54.4995,-115.15052 -6.3485,-7.359001 112.8754,-0.82102 -5.0787,6.162841 14.5566,35.33377 -39.7913,81.99514 -5.692,-0.17252 38.4801,-80.15937 -15.0247,-36.56381 -25.1342,-0.16294 -20.4414,38.93211 -9.718,4.20444 4.2531,-8.82944 17.5144,-34.71471 -52.5654,0.39213 -55.3867,116.87761 3.4845,6.47212 56.2162,-3.36455 z"
         id="path44"
         sodipodi:nodetypes="ccccccccccccccccccccccccccccccc"
         inkscape:label="h1" /></g><g
       id="g28"
       inkscape:label="gear"><path
         style="fill:#b3b3b3;fill-opacity:1;stroke-width:1.20319;filter:url(#filter75)"
         d="m 1837.8944,455.55206 c -0.3059,0.50834 -2.574,10.12879 -5.0402,21.37858 -2.4661,11.2498 -5.0964,21.04832 -5.845,21.77444 -0.7487,0.72624 -5.6927,2.82003 -10.9867,4.65297 -5.294,1.83293 -13.0945,5.07889 -17.3344,7.2131 l -7.7091,3.8804 -18.4483,-11.84213 c -10.1468,-6.51321 -24.86,-15.75827 -25.7772,-15.75827 -0.9171,0 -2.2174,0.1311 -2.289,0.22943 l -31.5579,43.37216 12.0802,19.13753 12.0803,19.13765 -4.0337,7.64313 c -2.2184,4.20381 -5.7489,12.58377 -7.8456,18.62232 l -3.8121,10.97909 -17.6487,3.8147 c -9.7067,2.098 -19.6791,4.35229 -22.1606,5.00947 l -4.512,1.19476 -7.1886,50.26658 c -0.1417,0.99026 0.2582,2.73365 2.1706,3.72388 1.158,0.59954 18.4576,5.38442 29.7368,7.85973 l 20.5076,4.50053 2.1249,7.38588 c 1.1688,4.0622 4.4804,12.25879 7.3593,18.21457 l 5.2345,10.82868 -12.0567,18.94923 -12.0566,18.94936 31.0945,35.39173 c 2.2228,2.52992 7.5179,4.31518 8.4362,4.31518 0.9184,0 10.1102,-5.3339 20.4265,-11.85325 l 18.7568,-11.8532 9.2032,4.4714 c 5.0618,2.45932 12.9932,5.70095 17.6255,7.20373 4.6322,1.50278 8.5431,2.82484 8.6908,2.93782 0.1477,0.1131 -1.6566,23.04248 0.6876,33.924 2.3442,10.88153 6.5543,11.45249 8.1861,11.3925 l 2.2568,-0.0829 27.9022,-0.32301 27.9023,-0.32302 4.9002,-22.08913 4.9003,-22.08919 10.8286,-3.88581 c 5.9558,-2.1371 14.1127,-5.55488 18.1265,-7.59488 l 7.2978,-3.70906 30.1771,19.74782 c 3.0677,2.0715 8.0194,3.57948 8.6812,3.5864 1.4449,0.0152 39.8663,-36.94889 39.8232,-38.31234 -0.017,-0.52338 -5.4698,-9.55763 -12.1184,-20.07602 l -12.0882,-19.12417 3.8603,-7.59729 c 2.1232,-4.17855 5.6052,-12.45563 7.7377,-18.3936 l 3.8776,-10.79632 17.8863,-3.86548 c 9.8375,-2.12591 19.9267,-4.46635 22.4203,-5.20077 l 4.5341,-1.33542 -0.3229,-27.91923 -0.1427,-29.84469 -10.8286,-2.58949 c -5.9557,-1.42423 -16.196,-1.84522 -22.5357,-3.28905 l -11.5269,-2.62523 -2.7635,-8.62204 c -1.52,-4.74212 -4.8701,-12.82513 -7.4447,-17.96238 l -4.6811,-9.34034 11.6547,-19.71253 12.6631,-20.77303 -19.0208,-18.74384 c -10.9294,-10.77024 -25.0625,-24.29295 -25.7317,-24.27574 -0.6694,0.0168 -3.315,0.77047 -5.491,2.76611 l -28.5326,26.168 -8.9553,-4.49896 c -4.9254,-2.47435 -12.9491,-5.7386 -17.8305,-7.25389 l -8.8752,-2.75494 -2.5683,-11.46685 c -1.4126,-6.30675 -3.7311,-16.33964 -5.1521,-22.29542 l -2.5838,-10.82868 -8.1421,-3.66187 c -0.042,-0.0187 -47.8872,3.43285 -48.1932,3.94065 z m 54.6465,104.16267 c 28.3674,9.6297 49.8667,32.12401 57.775,60.44932 5.2125,18.66985 2.988,45.10904 -5.1407,61.09567 -17.3976,34.21635 -51.8986,53.39082 -88.7153,49.30492 -22.0462,-2.44668 -37.0961,-9.64379 -52.4602,-25.08741 -16.8202,-16.90743 -24.4945,-34.07294 -25.5756,-57.20637 -2.0632,-44.15312 25.7759,-80.86103 68.8813,-90.8251 11.6338,-2.68925 33.9227,-1.57125 45.2355,2.26897 z"
         id="path27-9"
         inkscape:label="background"
         sodipodi:nodetypes="ssssscsscccccscsscssscsscccssscssssscccccssccscscsccsscccsscsscccscscsscsscccsscsscsss" /><path
         style="fill:#ffffff;stroke-width:1.20319"
         d="m 1829.8754,451.70433 c -0.3059,0.50834 -2.574,10.12879 -5.0402,21.37858 -2.4661,11.2498 -5.0964,21.04832 -5.845,21.77444 -0.7487,0.72624 -5.6927,2.82003 -10.9867,4.65297 -5.294,1.83293 -13.0945,5.07889 -17.3344,7.2131 l -7.7091,3.8804 -18.4483,-11.84213 c -10.1468,-6.51321 -19.1988,-11.84212 -20.116,-11.84212 -0.9171,0 -10.1816,8.92921 -20.5877,19.84272 l -18.9204,19.84272 12.0802,19.13753 12.0803,19.13765 -4.0337,7.64313 c -2.2184,4.20381 -5.7489,12.58377 -7.8456,18.62232 l -3.8121,10.97909 -17.6487,3.8147 c -9.7067,2.098 -19.6791,4.35229 -22.1606,5.00947 l -4.512,1.19476 v 27.58463 c 0,25.0536 0.1932,27.68461 2.1056,28.67484 1.158,0.59954 11.334,3.11541 22.6132,5.59072 l 20.5076,4.50053 2.1249,7.38588 c 1.1688,4.0622 4.4804,12.25879 7.3593,18.21457 l 5.2345,10.82868 -12.0567,18.94923 -12.0566,18.94936 18.9305,19.85343 c 10.4118,10.9194 19.6819,19.85348 20.6002,19.85348 0.9184,0 10.1102,-5.3339 20.4265,-11.85325 l 18.7568,-11.8532 9.2032,4.4714 c 5.0618,2.45932 12.9932,5.70095 17.6255,7.20373 4.6322,1.50278 8.5431,2.82484 8.6908,2.93782 0.1477,0.1131 2.1866,9.10867 4.5308,19.99019 2.3442,10.88153 4.7882,21.01281 5.4309,22.51398 l 1.1688,2.72938 27.9022,-0.32301 27.9023,-0.32302 4.9002,-22.08913 4.9003,-22.08919 10.8286,-3.88581 c 5.9558,-2.1371 14.1127,-5.55488 18.1265,-7.59488 l 7.2978,-3.70906 18.5708,11.9024 c 10.2138,6.54642 19.1121,11.90815 19.7739,11.91507 1.4449,0.0152 40.3799,-37.43214 40.3368,-38.79559 -0.017,-0.52338 -5.4698,-9.55763 -12.1184,-20.07602 l -12.0882,-19.12417 3.8603,-7.59729 c 2.1232,-4.17855 5.6052,-12.45563 7.7377,-18.3936 l 3.8776,-10.79632 17.8863,-3.86548 c 9.8375,-2.12591 19.9267,-4.46635 22.4203,-5.20077 l 4.5341,-1.33542 -0.3229,-27.91923 -0.3229,-27.91912 -10.8286,-2.58949 c -5.9558,-1.4241 -16.0158,-3.77079 -22.3555,-5.21462 l -11.5269,-2.62523 -2.7635,-8.62204 c -1.52,-4.74212 -4.8701,-12.82513 -7.4447,-17.96238 l -4.6811,-9.34034 12.2289,-19.34677 12.229,-19.34688 -19.7139,-19.74105 c -10.8426,-10.85756 -20.2615,-19.72698 -20.9307,-19.70977 -0.6694,0.0168 -9.5542,5.32831 -19.7442,11.8023 l -18.5274,11.77114 -8.9553,-4.49896 c -4.9254,-2.47435 -12.9491,-5.7386 -17.8305,-7.25389 l -8.8752,-2.75494 -2.5683,-11.46685 c -1.4126,-6.30675 -3.7311,-16.33964 -5.1521,-22.29542 l -2.5838,-10.82868 -27.8896,-0.32282 c -15.3391,-0.17747 -28.1397,0.0938 -28.4457,0.6016 z m 54.6465,104.16267 c 28.3674,9.6297 49.8667,32.12401 57.775,60.44932 5.2125,18.66985 2.988,45.10904 -5.1407,61.09567 -17.3976,34.21635 -51.8986,53.39082 -88.7153,49.30492 -22.0462,-2.44668 -37.0961,-9.64379 -52.4602,-25.08741 -16.8202,-16.90743 -24.4945,-34.07294 -25.5756,-57.20637 -2.0632,-44.15312 25.7759,-80.86103 68.8813,-90.8251 11.6338,-2.68925 33.9227,-1.57125 45.2355,2.26897 z"
         id="path27"
         inkscape:label="white" /></g></g><g
     inkscape:label="poster_oem"
     inkscape:groupmode="layer"
     id="g83"
     transform="translate(-122.98205,-29.109941)"><rect
       style="fill:url(#radialGradient83);fill-opacity:1;fill-rule:nonzero;stroke-width:1.61712"
       id="rect73"
       width="664.01111"
       height="935.72241"
       x="1525.9523"
       y="33.480999" /><path
       id="path73"
       style="display:inline;fill:#ac8a00;fill-opacity:1;filter:url(#filter71)"
       inkscape:label="shadow"
       d="m 1967.1264,96.864735 -68.5411,0.0078 -7.2011,0.0098 6.5371,6.126955 -4.7285,10.05468 -8.6192,17.11328 -11.164,-27.09765 5.0781,-6.164062 -112.875,0.822266 6.3476,7.357416 -12.8066,27.0586 -11.7519,-28.52735 5.0781,-6.164057 -112.875,0.822266 6.3476,7.357421 -54.498,115.15234 5.3867,12.84571 7.9336,10.62304 -2.1699,-11.40234 59.041,-3.13086 5.0605,-10.28125 50.17,1.36133 0.01,-0.0156 0.8164,0.0254 5.1485,12.27344 7.9316,10.62305 -2.1699,-11.40235 59.041,-3.13086 5.0606,-10.28125 48.1406,1.30664 -11.3594,23.49024 11.082,-7.28711 1.7696,-3.65625 84.6015,-0.79297 49.6133,-92.29492 -16.9805,-37.13086 z"
       transform="matrix(0.60025774,0,0,0.60025774,610.74466,12.497056)" /><g
       id="g80"
       transform="matrix(0.60025774,0,0,0.60025774,610.74466,12.497056)"
       inkscape:label="logo"><path
         style="fill:#ac8a00;fill-opacity:1"
         d="m 1839.7378,229.68123 86.4072,-1.12175 47.2398,-90.24136 -19.5694,-39.38968 -50.999,0.935672 -5.9441,13.351408 z"
         id="path74"
         inkscape:label="din"
         sodipodi:nodetypes="ccccccc" /><path
         style="fill:#e4bc1b;fill-opacity:1"
         d="m 1951.308,102.56035 c 0.3887,1.00446 18.2427,36.6966 18.2427,36.6966 l -46.8782,86.2714 -78.9619,0.7116 -0.3133,-6.03433 -3.929,12.57741 87.4794,-0.81995 49.6145,-92.29589 -16.9812,-37.1297 7.5448,-5.673419 -68.5406,0.0078 -7.2001,0.0096 6.5358,6.127989 -4.7273,10.05409 -13.0852,25.9755 -50.6137,104.65964 11.0824,-7.2873 60.0582,-124.06983 4.7514,-9.64791 z"
         id="path75"
         sodipodi:nodetypes="cccccccccccccccccccc"
         inkscape:label="d" /><path
         style="fill:#e4bc1b;fill-opacity:1"
         d="m 1921.2469,149.51983 -22.9022,40.53048 9.2342,-3.05211 22.546,-40.15122 z"
         id="path76"
         sodipodi:nodetypes="ccccc"
         inkscape:label="dinner" /><path
         style="display:inline;fill:#b3b3b3"
         d="m 1664.7622,217.6189 56.9775,0.51877 36.6372,-81.72515 -16.1841,-34.85687 -92.9111,0.16089 -53.7732,117.1038 5.8177,11.24722 58.9144,-3.53651 z"
         id="path77"
         inkscape:label="h1in"
         sodipodi:nodetypes="ccccccccc" /><path
         style="fill:#f9f9f9"
         d="m 1667.4457,201.97937 2.9962,-6.34796 8.6921,-5.33412 -10.4206,24.12527 52.5461,-0.11903 -4.383,6.5058 -50.1709,-1.35983 -5.059,10.28018 -59.0412,3.13185 2.1697,11.40222 -7.933,-10.62331 -5.3882,-12.84698 54.4995,-115.15052 -6.3485,-7.359007 112.8754,-0.82102 -5.0787,6.162847 14.5566,35.33377 -39.7913,81.99514 -5.692,-0.17252 38.4801,-80.15937 -15.0247,-36.56381 -25.1342,-0.16294 -20.4414,38.93211 -9.718,4.20444 4.2531,-8.82944 17.5144,-34.71471 -52.5654,0.39213 -55.3867,116.87761 3.4845,6.47212 56.2162,-3.36455 z"
         id="path78"
         sodipodi:nodetypes="ccccccccccccccccccccccccccccccc"
         inkscape:label="h1" /><path
         style="display:inline;fill:#b3b3b3"
         d="m 1790.7701,217.072 56.9775,0.51877 36.6372,-81.72515 -16.1841,-34.85687 -92.9111,0.16089 -53.7732,117.1038 5.8177,11.24722 58.9144,-3.53651 z"
         id="path79"
         inkscape:label="h1in"
         sodipodi:nodetypes="ccccccccc" /><path
         style="fill:#f9f9f9"
         d="m 1793.4536,201.43247 2.9962,-6.34796 8.6921,-5.33412 -10.4206,24.12527 52.5461,-0.11903 -4.383,6.5058 -50.1709,-1.35983 -5.059,10.28018 -59.0412,3.13185 2.1697,11.40222 -7.933,-10.62331 -5.3882,-12.84698 54.4995,-115.15052 -6.3485,-7.359001 112.8754,-0.82102 -5.0787,6.162841 14.5566,35.33377 -39.7913,81.99514 -5.692,-0.17252 38.4801,-80.15937 -15.0247,-36.56381 -25.1342,-0.16294 -20.4414,38.93211 -9.718,4.20444 4.2531,-8.82944 17.5144,-34.71471 -52.5654,0.39213 -55.3867,116.87761 3.4845,6.47212 56.2162,-3.36455 z"
         id="path80"
         sodipodi:nodetypes="ccccccccccccccccccccccccccccccc"
         inkscape:label="h1" /></g><g
       id="g82"
       inkscape:label="gear"
       transform="translate(0,20.822997)"><path
         style="fill:#b3b3b3;fill-opacity:1;stroke-width:1.20319;filter:url(#filter75)"
         d="m 1837.8944,455.55206 c -0.3059,0.50834 -2.574,10.12879 -5.0402,21.37858 -2.4661,11.2498 -5.0964,21.04832 -5.845,21.77444 -0.7487,0.72624 -5.6927,2.82003 -10.9867,4.65297 -5.294,1.83293 -13.0945,5.07889 -17.3344,7.2131 l -7.7091,3.8804 -18.4483,-11.84213 c -10.1468,-6.51321 -24.86,-15.75827 -25.7772,-15.75827 -0.9171,0 -2.2174,0.1311 -2.289,0.22943 l -31.5579,43.37216 12.0802,19.13753 12.0803,19.13765 -4.0337,7.64313 c -2.2184,4.20381 -5.7489,12.58377 -7.8456,18.62232 l -3.8121,10.97909 -17.6487,3.8147 c -9.7067,2.098 -19.6791,4.35229 -22.1606,5.00947 l -4.512,1.19476 -7.1886,50.26658 c -0.1417,0.99026 0.2582,2.73365 2.1706,3.72388 1.158,0.59954 18.4576,5.38442 29.7368,7.85973 l 20.5076,4.50053 2.1249,7.38588 c 1.1688,4.0622 4.4804,12.25879 7.3593,18.21457 l 5.2345,10.82868 -12.0567,18.94923 -12.0566,18.94936 31.0945,35.39173 c 2.2228,2.52992 7.5179,4.31518 8.4362,4.31518 0.9184,0 10.1102,-5.3339 20.4265,-11.85325 l 18.7568,-11.8532 9.2032,4.4714 c 5.0618,2.45932 12.9932,5.70095 17.6255,7.20373 4.6322,1.50278 8.5431,2.82484 8.6908,2.93782 0.1477,0.1131 -1.6566,23.04248 0.6876,33.924 2.3442,10.88153 6.5543,11.45249 8.1861,11.3925 l 2.2568,-0.0829 27.9022,-0.32301 27.9023,-0.32302 4.9002,-22.08913 4.9003,-22.08919 10.8286,-3.88581 c 5.9558,-2.1371 14.1127,-5.55488 18.1265,-7.59488 l 7.2978,-3.70906 30.1771,19.74782 c 3.0677,2.0715 8.0194,3.57948 8.6812,3.5864 1.4449,0.0152 39.8663,-36.94889 39.8232,-38.31234 -0.017,-0.52338 -5.4698,-9.55763 -12.1184,-20.07602 l -12.0882,-19.12417 3.8603,-7.59729 c 2.1232,-4.17855 5.6052,-12.45563 7.7377,-18.3936 l 3.8776,-10.79632 17.8863,-3.86548 c 9.8375,-2.12591 19.9267,-4.46635 22.4203,-5.20077 l 4.5341,-1.33542 -0.3229,-27.91923 -0.1427,-29.84469 -10.8286,-2.58949 c -5.9557,-1.42423 -16.196,-1.84522 -22.5357,-3.28905 l -11.5269,-2.62523 -2.7635,-8.62204 c -1.52,-4.74212 -4.8701,-12.82513 -7.4447,-17.96238 l -4.6811,-9.34034 11.6547,-19.71253 12.6631,-20.77303 -19.0208,-18.74384 c -10.9294,-10.77024 -25.0625,-24.29295 -25.7317,-24.27574 -0.6694,0.0168 -3.315,0.77047 -5.491,2.76611 l -28.5326,26.168 -8.9553,-4.49896 c -4.9254,-2.47435 -12.9491,-5.7386 -17.8305,-7.25389 l -8.8752,-2.75494 -2.5683,-11.46685 c -1.4126,-6.30675 -3.7311,-16.33964 -5.1521,-22.29542 l -2.5838,-10.82868 -8.1421,-3.66187 c -0.042,-0.0187 -47.8872,3.43285 -48.1932,3.94065 z m 54.6465,104.16267 c 28.3674,9.6297 49.8667,32.12401 57.775,60.44932 5.2125,18.66985 2.988,45.10904 -5.1407,61.09567 -17.3976,34.21635 -51.8986,53.39082 -88.7153,49.30492 -22.0462,-2.44668 -37.0961,-9.64379 -52.4602,-25.08741 -16.8202,-16.90743 -24.4945,-34.07294 -25.5756,-57.20637 -2.0632,-44.15312 25.7759,-80.86103 68.8813,-90.8251 11.6338,-2.68925 33.9227,-1.57125 45.2355,2.26897 z"
         id="path81"
         inkscape:label="background"
         sodipodi:nodetypes="ssssscsscccccscsscssscsscccssscssssscccccssccscscsccsscccsscsscccscscsscsscccsscsscsss" /><path
         style="fill:#ffffff;stroke-width:1.20319"
         d="m 1829.8754,451.70433 c -0.3059,0.50834 -2.574,10.12879 -5.0402,21.37858 -2.4661,11.2498 -5.0964,21.04832 -5.845,21.77444 -0.7487,0.72624 -5.6927,2.82003 -10.9867,4.65297 -5.294,1.83293 -13.0945,5.07889 -17.3344,7.2131 l -7.7091,3.8804 -18.4483,-11.84213 c -10.1468,-6.51321 -19.1988,-11.84212 -20.116,-11.84212 -0.9171,0 -10.1816,8.92921 -20.5877,19.84272 l -18.9204,19.84272 12.0802,19.13753 12.0803,19.13765 -4.0337,7.64313 c -2.2184,4.20381 -5.7489,12.58377 -7.8456,18.62232 l -3.8121,10.97909 -17.6487,3.8147 c -9.7067,2.098 -19.6791,4.35229 -22.1606,5.00947 l -4.512,1.19476 v 27.58463 c 0,25.0536 0.1932,27.68461 2.1056,28.67484 1.158,0.59954 11.334,3.11541 22.6132,5.59072 l 20.5076,4.50053 2.1249,7.38588 c 1.1688,4.0622 4.4804,12.25879 7.3593,18.21457 l 5.2345,10.82868 -12.0567,18.94923 -12.0566,18.94936 18.9305,19.85343 c 10.4118,10.9194 19.6819,19.85348 20.6002,19.85348 0.9184,0 10.1102,-5.3339 20.4265,-11.85325 l 18.7568,-11.8532 9.2032,4.4714 c 5.0618,2.45932 12.9932,5.70095 17.6255,7.20373 4.6322,1.50278 8.5431,2.82484 8.6908,2.93782 0.1477,0.1131 2.1866,9.10867 4.5308,19.99019 2.3442,10.88153 4.7882,21.01281 5.4309,22.51398 l 1.1688,2.72938 27.9022,-0.32301 27.9023,-0.32302 4.9002,-22.08913 4.9003,-22.08919 10.8286,-3.88581 c 5.9558,-2.1371 14.1127,-5.55488 18.1265,-7.59488 l 7.2978,-3.70906 18.5708,11.9024 c 10.2138,6.54642 19.1121,11.90815 19.7739,11.91507 1.4449,0.0152 40.3799,-37.43214 40.3368,-38.79559 -0.017,-0.52338 -5.4698,-9.55763 -12.1184,-20.07602 l -12.0882,-19.12417 3.8603,-7.59729 c 2.1232,-4.17855 5.6052,-12.45563 7.7377,-18.3936 l 3.8776,-10.79632 17.8863,-3.86548 c 9.8375,-2.12591 19.9267,-4.46635 22.4203,-5.20077 l 4.5341,-1.33542 -0.3229,-27.91923 -0.3229,-27.91912 -10.8286,-2.58949 c -5.9558,-1.4241 -16.0158,-3.77079 -22.3555,-5.21462 l -11.5269,-2.62523 -2.7635,-8.62204 c -1.52,-4.74212 -4.8701,-12.82513 -7.4447,-17.96238 l -4.6811,-9.34034 12.2289,-19.34677 12.229,-19.34688 -19.7139,-19.74105 c -10.8426,-10.85756 -20.2615,-19.72698 -20.9307,-19.70977 -0.6694,0.0168 -9.5542,5.32831 -19.7442,11.8023 l -18.5274,11.77114 -8.9553,-4.49896 c -4.9254,-2.47435 -12.9491,-5.7386 -17.8305,-7.25389 l -8.8752,-2.75494 -2.5683,-11.46685 c -1.4126,-6.30675 -3.7311,-16.33964 -5.1521,-22.29542 l -2.5838,-10.82868 -27.8896,-0.32282 c -15.3391,-0.17747 -28.1397,0.0938 -28.4457,0.6016 z m 54.6465,104.16267 c 28.3674,9.6297 49.8667,32.12401 57.775,60.44932 5.2125,18.66985 2.988,45.10904 -5.1407,61.09567 -17.3976,34.21635 -51.8986,53.39082 -88.7153,49.30492 -22.0462,-2.44668 -37.0961,-9.64379 -52.4602,-25.08741 -16.8202,-16.90743 -24.4945,-34.07294 -25.5756,-57.20637 -2.0632,-44.15312 25.7759,-80.86103 68.8813,-90.8251 11.6338,-2.68925 33.9227,-1.57125 45.2355,2.26897 z"
         id="path82"
         inkscape:label="white" /></g><g
       style="fill:none"
       id="g84"
       transform="matrix(0.26512084,0,0,0.24635344,1590.7134,242.49151)"
       inkscape:label="bazzite"><path
         fill-rule="evenodd"
         clip-rule="evenodd"
         d="m 180,100 c -44.183,0 -80,35.817 -80,80 v 73.6 46.4 c 0,110.457 89.543,200 200,200 110.457,0 200,-89.543 200,-200 0,-110.457 -89.543,-200 -200,-200 h -46.4 v 102.4 h 107.348 c 44.985,0 81.452,36.467 81.452,81.452 0,87.563 -70.984,158.548 -158.548,158.548 -44.985,0 -81.452,-36.467 -81.452,-81.452 V 253.6 H 100 V 202.4 H 202.4 V 100 Z m 73.6,260.948 V 253.6 h 107.348 c 16.708,0 30.252,13.544 30.252,30.252 0,59.286 -48.062,107.348 -107.348,107.348 -16.708,0 -30.252,-13.544 -30.252,-30.252 z"
         fill="#ffffff"
         id="path1-6" /><path
         fill-rule="evenodd"
         clip-rule="evenodd"
         d="m 178.4,119.2 c 0,-10.604 8.596,-19.2 19.2,-19.2 h 60.8 c 10.604,0 19.2,8.596 19.2,19.2 v 59.2 h 59.2 c 10.604,0 19.2,8.596 19.2,19.2 v 60.8 c 0,10.604 -8.596,19.2 -19.2,19.2 h -59.2 v 59.2 c 0,10.604 -8.596,19.2 -19.2,19.2 h -60.8 c -10.604,0 -19.2,-8.596 -19.2,-19.2 v -59.2 h -59.2 c -10.604,0 -19.2,-8.596 -19.2,-19.2 v -60.8 c 0,-10.604 8.596,-19.2 19.2,-19.2 h 59.2 z m 75.2,4.8 h -51.2 v 59.2 c 0,10.604 -8.596,19.2 -19.2,19.2 H 124 v 51.2 h 59.2 c 10.604,0 19.2,8.596 19.2,19.2 V 332 h 51.2 v -59.2 c 0,-10.604 8.596,-19.2 19.2,-19.2 H 332 v -51.2 h -59.2 c -10.604,0 -19.2,-8.596 -19.2,-19.2 z"
         fill="#ffffff"
         id="path2-7" /><path
         d="m 310,224.536 c 2.667,1.539 2.667,5.389 0,6.928 l -16.8,9.699 c -2.666,1.54 -6,-0.385 -6,-3.464 v -19.398 c 0,-3.079 3.334,-5.004 6,-3.464 z"
         fill="#ffffff"
         id="path3-5" /><path
         d="m 231.465,310 c -1.54,2.666 -5.389,2.666 -6.928,0 l -9.7,-16.8 c -1.54,-2.666 0.385,-6 3.464,-6 H 237.7 c 3.079,0 5.004,3.334 3.464,6 z"
         fill="#ffffff"
         id="path4-3" /><path
         d="m 224.537,146 c 1.539,-2.666 5.388,-2.666 6.928,0 l 9.699,16.8 c 1.54,2.666 -0.385,6 -3.464,6 h -19.399 c -3.079,0 -5.004,-3.334 -3.464,-6 z"
         fill="#ffffff"
         id="path5-5" /><path
         d="m 146,231.464 c -2.667,-1.539 -2.667,-5.389 0,-6.928 l 16.8,-9.699 c 2.666,-1.54 6,0.385 6,3.464 v 19.398 c 0,3.079 -3.334,5.004 -6,3.464 z"
         fill="#ffffff"
         id="path6" /><path
         d="m 682.025,442.835 c -20.02,0 -37.73,-4.235 -53.13,-12.705 -15.4,-8.47 -27.463,-20.533 -36.19,-36.19 C 584.235,378.027 580,359.29 580,337.73 V 157.165 h 44.275 V 271.51 h 0.385 c 4.107,-6.93 9.497,-12.962 16.17,-18.095 6.673,-5.133 14.117,-9.112 22.33,-11.935 8.213,-2.823 16.94,-4.235 26.18,-4.235 18.737,0 35.163,4.235 49.28,12.705 14.373,8.213 25.538,19.763 33.495,34.65 8.213,14.887 12.32,32.34 12.32,52.36 0,15.657 -2.438,30.03 -7.315,43.12 -4.62,12.833 -11.422,23.998 -20.405,33.495 -8.727,9.497 -19.378,16.812 -31.955,21.945 -12.577,4.877 -26.822,7.315 -42.735,7.315 z m 0,-37.73 c 11.293,0 21.303,-2.695 30.03,-8.085 8.727,-5.647 15.528,-13.347 20.405,-23.1 4.877,-9.753 7.315,-21.047 7.315,-33.88 0,-12.577 -2.438,-23.742 -7.315,-33.495 -4.877,-9.753 -11.678,-17.453 -20.405,-23.1 -8.47,-5.647 -18.352,-8.47 -29.645,-8.47 -11.293,0 -21.303,2.823 -30.03,8.47 -8.727,5.39 -15.528,12.962 -20.405,22.715 -4.877,9.753 -7.315,21.047 -7.315,33.88 0,12.833 2.438,24.127 7.315,33.88 4.877,9.753 11.678,17.453 20.405,23.1 8.727,5.39 18.608,8.085 29.645,8.085 z"
         fill="#ffffff"
         id="path7" /><path
         d="m 894.446,442.835 c -18.737,0 -34.907,-4.62 -48.51,-13.86 -13.604,-9.24 -24.127,-21.56 -31.57,-36.96 -7.187,-15.657 -10.78,-32.853 -10.78,-51.59 0,-19.507 4.106,-36.96 12.32,-52.36 8.47,-15.657 20.405,-27.977 35.805,-36.96 15.656,-9.24 34.265,-13.86 55.825,-13.86 21.303,0 39.398,4.62 54.285,13.86 15.143,8.983 26.693,21.303 34.65,36.96 8.209,15.4 12.319,32.597 12.319,51.59 v 98.56 H 964.516 V 401.64 h -0.77 c -3.85,7.187 -8.855,13.988 -15.015,20.405 -6.16,6.16 -13.732,11.165 -22.715,15.015 -8.984,3.85 -19.507,5.775 -31.57,5.775 z m 11.935,-37.73 c 11.55,0 21.56,-2.823 30.03,-8.47 8.726,-5.903 15.4,-13.732 20.02,-23.485 4.876,-10.01 7.315,-21.175 7.315,-33.495 0,-12.32 -2.31,-23.228 -6.93,-32.725 -4.62,-9.753 -11.165,-17.453 -19.635,-23.1 -8.47,-5.903 -18.609,-8.855 -30.415,-8.855 -12.32,0 -22.844,2.952 -31.57,8.855 -8.727,5.647 -15.4,13.347 -20.02,23.1 -4.62,9.753 -6.93,20.79 -6.93,33.11 0,12.063 2.31,23.1 6.93,33.11 4.62,9.753 11.165,17.582 19.635,23.485 8.726,5.647 19.25,8.47 31.57,8.47 z"
         fill="#ffffff"
         id="path8" /><path
         d="m 1082.17,438.215 c -8.47,0 -16.04,-2.053 -22.71,-6.16 -6.68,-4.107 -12.07,-9.625 -16.17,-16.555 -3.85,-6.93 -5.78,-14.502 -5.78,-22.715 0,-8.213 2.06,-15.657 6.16,-22.33 4.11,-6.673 9.76,-12.448 16.94,-17.325 l 85.47,-55.825 c 2.57,-1.283 4.11,-2.695 4.62,-4.235 0.77,-1.54 1.16,-3.08 1.16,-4.62 0,-2.31 -0.9,-4.363 -2.7,-6.16 -1.54,-1.797 -3.72,-2.695 -6.54,-2.695 h -95.48 v -37.73 h 108.57 c 8.47,0 15.91,2.053 22.33,6.16 6.67,4.107 11.93,9.625 15.78,16.555 4.11,6.93 6.16,14.502 6.16,22.715 0,8.213 -2.05,15.657 -6.16,22.33 -4.1,6.673 -9.75,12.448 -16.94,17.325 l -85.08,55.825 c -2.31,1.283 -3.98,2.695 -5.01,4.235 -0.77,1.54 -1.15,3.08 -1.15,4.62 0,2.31 0.9,4.363 2.69,6.16 1.8,1.797 4.11,2.695 6.93,2.695 h 100.87 v 37.73 z"
         fill="#ffffff"
         id="path9-6" /><path
         d="m 1266.13,438.215 c -8.47,0 -16.04,-2.053 -22.71,-6.16 -6.68,-4.107 -12.07,-9.625 -16.17,-16.555 -3.85,-6.93 -5.78,-14.502 -5.78,-22.715 0,-8.213 2.05,-15.657 6.16,-22.33 4.11,-6.673 9.75,-12.448 16.94,-17.325 l 85.47,-55.825 c 2.57,-1.283 4.11,-2.695 4.62,-4.235 0.77,-1.54 1.16,-3.08 1.16,-4.62 0,-2.31 -0.9,-4.363 -2.7,-6.16 -1.54,-1.797 -3.72,-2.695 -6.54,-2.695 h -95.48 v -37.73 h 108.57 c 8.47,0 15.91,2.053 22.33,6.16 6.67,4.107 11.93,9.625 15.78,16.555 4.11,6.93 6.16,14.502 6.16,22.715 0,8.213 -2.05,15.657 -6.16,22.33 -4.11,6.673 -9.75,12.448 -16.94,17.325 l -85.08,55.825 c -2.31,1.283 -3.98,2.695 -5.01,4.235 -0.77,1.54 -1.15,3.08 -1.15,4.62 0,2.31 0.89,4.363 2.69,6.16 1.8,1.797 4.11,2.695 6.93,2.695 h 100.87 v 37.73 z"
         fill="#ffffff"
         id="path10-2" /><path
         d="m 1429.68,438.215 v -196.35 h 44.28 v 196.35 z m 21.95,-223.685 c -7.7,0 -14.38,-2.823 -20.02,-8.47 -5.65,-5.647 -8.47,-12.32 -8.47,-20.02 0,-7.7 2.82,-14.373 8.47,-20.02 5.64,-5.647 12.32,-8.47 20.02,-8.47 7.95,0 14.63,2.823 20.02,8.47 5.64,5.647 8.47,12.32 8.47,20.02 0,7.7 -2.83,14.373 -8.47,20.02 -5.39,5.647 -12.07,8.47 -20.02,8.47 z"
         fill="#ffffff"
         id="path11" /><path
         d="m 1594.82,438.215 c -17.45,0 -31.18,-5.005 -41.19,-15.015 C 1543.87,413.19 1539,399.587 1539,382.39 V 192.585 h 43.89 v 187.88 c 0,5.903 1.79,10.78 5.39,14.63 3.59,3.593 8.34,5.39 14.24,5.39 h 41.2 v 37.73 z m -89.7,-158.62 v -37.73 h 138.98 v 37.73 z"
         fill="#ffffff"
         id="path12-9" /><path
         d="m 1778.29,438.215 c -22.08,0 -41.46,-4.107 -58.14,-12.32 -16.43,-8.47 -29.26,-20.02 -38.5,-34.65 -9.24,-14.887 -13.86,-31.955 -13.86,-51.205 0,-20.277 4.11,-38.115 12.32,-53.515 8.21,-15.4 19.51,-27.463 33.88,-36.19 14.37,-8.727 30.93,-13.09 49.67,-13.09 21.04,0 38.37,4.492 51.97,13.475 13.6,8.983 23.61,21.047 30.03,36.19 6.67,15.143 10.01,32.083 10.01,50.82 0,2.567 -0.13,5.518 -0.38,8.855 -0.26,3.337 -0.65,5.903 -1.16,7.7 h -139.37 c 1.54,10.267 5.26,18.865 11.17,25.795 5.9,6.673 13.34,11.807 22.33,15.4 8.98,3.337 18.99,5.005 30.03,5.005 h 52.74 v 37.73 z m -63.91,-113.96 h 97.02 c -0.26,-4.877 -1.03,-9.753 -2.31,-14.63 -1.03,-4.877 -2.83,-9.497 -5.39,-13.86 -2.31,-4.363 -5.39,-8.085 -9.24,-11.165 -3.6,-3.337 -7.96,-5.903 -13.09,-7.7 -5.14,-2.053 -11.04,-3.08 -17.71,-3.08 -7.7,0 -14.51,1.54 -20.41,4.62 -5.9,2.823 -10.91,6.673 -15.01,11.55 -4.11,4.62 -7.32,10.01 -9.63,16.17 -2.05,5.903 -3.46,11.935 -4.23,18.095 z"
         fill="#ffffff"
         id="path13" /></g></g></svg>
