<?xml version="1.0" encoding="UTF-8" standalone="no"?>
<!-- Created with Inkscape (http://www.inkscape.org/) -->

<svg
   width="660"
   height="930"
   viewBox="0 0 660 930.00001"
   version="1.1"
   id="svg1"
   xml:space="preserve"
   xmlns:xlink="http://www.w3.org/1999/xlink"
   xmlns="http://www.w3.org/2000/svg"
   xmlns:svg="http://www.w3.org/2000/svg"><defs
     id="defs1"><linearGradient
       id="linearGradient114"><stop
         style="stop-color:#333333;stop-opacity:1;"
         offset="0.60097265"
         id="stop116" /><stop
         style="stop-color:#2a2a2a;stop-opacity:1;"
         offset="1"
         id="stop115" /></linearGradient><filter
       style="color-interpolation-filters:sRGB"
       id="filter75"
       x="-0.12753789"
       y="-0.1288995"
       width="1.2902593"
       height="1.2876089"><feFlood
         result="flood"
         in="SourceGraphic"
         flood-opacity="0.341176"
         flood-color="rgb(0,0,0)"
         id="feFlood74" /><feGaussianBlur
         result="blur"
         in="SourceGraphic"
         stdDeviation="20.462362"
         id="feGaussianBlur74" /><feOffset
         result="offset"
         in="blur"
         dx="13.547751"
         dy="11.357330"
         id="feOffset74" /><feComposite
         result="comp1"
         operator="in"
         in="flood"
         in2="offset"
         id="feComposite74" /><feComposite
         result="comp2"
         operator="over"
         in="SourceGraphic"
         in2="comp1"
         id="feComposite75" /></filter><radialGradient
       xlink:href="#linearGradient114"
       id="radialGradient116"
       cx="1857.9578"
       cy="501.34222"
       fx="1857.9578"
       fy="501.34222"
       r="332.00555"
       gradientTransform="matrix(1,0,0,1.4091969,0,-205.14769)"
       gradientUnits="userSpaceOnUse" /><filter
       style="color-interpolation-filters:sRGB"
       id="filter71"
       x="-0.28257226"
       y="-0.73827607"
       width="1.6112853"
       height="2.61388"><feFlood
         result="flood"
         in="SourceGraphic"
         flood-opacity="0.364706"
         flood-color="rgb(0,0,0)"
         id="feFlood70" /><feGaussianBlur
         result="blur"
         in="SourceGraphic"
         stdDeviation="22.670990"
         id="feGaussianBlur70" /><feOffset
         result="offset"
         in="blur"
         dx="8.884589"
         dy="10.120960"
         id="feOffset70" /><feComposite
         result="comp1"
         operator="in"
         in="flood"
         in2="offset"
         id="feComposite70" /><feComposite
         result="fbSourceGraphic"
         operator="over"
         in="SourceGraphic"
         in2="comp1"
         id="feComposite71" /><feColorMatrix
         result="fbSourceGraphicAlpha"
         in="fbSourceGraphic"
         values="0 0 0 -1 0 0 0 0 -1 0 0 0 0 -1 0 0 0 0 1 0"
         id="feColorMatrix71" /><feFlood
         id="feFlood71"
         result="flood"
         in="fbSourceGraphic"
         flood-opacity="0.364706"
         flood-color="rgb(0,0,0)" /><feGaussianBlur
         id="feGaussianBlur71"
         result="blur"
         in="fbSourceGraphic"
         stdDeviation="22.670990" /><feOffset
         id="feOffset71"
         result="offset"
         in="blur"
         dx="8.884589"
         dy="10.120960" /><feComposite
         id="feComposite72"
         result="comp1"
         operator="in"
         in="flood"
         in2="offset" /><feComposite
         id="feComposite73"
         result="comp2"
         operator="over"
         in="fbSourceGraphic"
         in2="comp1" /></filter></defs><g
     id="g26"
     transform="translate(-1525.5961,-34.470679)"><rect
       style="fill:url(#radialGradient116);fill-opacity:1;fill-rule:nonzero;stroke-width:1.61712"
       id="rect21"
       width="664.01111"
       height="935.72241"
       x="1525.9523"
       y="33.480999" /><path
       id="path46"
       style="fill:#ac8a00;fill-opacity:1;filter:url(#filter71)"
       d="m 1967.1264,96.864735 -68.5411,0.0078 -7.2011,0.0098 6.5371,6.126955 -4.7285,10.05468 -8.6192,17.11328 -11.164,-27.09765 5.0781,-6.164062 -112.875,0.822266 6.3476,7.357416 -12.8066,27.0586 -11.7519,-28.52735 5.0781,-6.164057 -112.875,0.822266 6.3476,7.357421 -54.498,115.15234 5.3867,12.84571 7.9336,10.62304 -2.1699,-11.40234 59.041,-3.13086 5.0605,-10.28125 50.17,1.36133 0.01,-0.0156 0.8164,0.0254 5.1485,12.27344 7.9316,10.62305 -2.1699,-11.40235 59.041,-3.13086 5.0606,-10.28125 48.1406,1.30664 -11.3594,23.49024 11.082,-7.28711 1.7696,-3.65625 84.6015,-0.79297 49.6133,-92.29492 -16.9805,-37.13086 z"
       transform="translate(73.94978,37.256778)" /><g
       id="g45"
       transform="translate(73.949775,37.256778)"><path
         style="fill:#ac8a00;fill-opacity:1"
         d="m 1839.7378,229.68123 86.4072,-1.12175 47.2398,-90.24136 -19.5694,-39.38968 -50.999,0.935672 -5.9441,13.351408 z"
         id="path39" /><path
         style="fill:#e4bc1b;fill-opacity:1"
         d="m 1951.308,102.56035 c 0.3887,1.00446 18.2427,36.6966 18.2427,36.6966 l -46.8782,86.2714 -78.9619,0.7116 -0.3133,-6.03433 -3.929,12.57741 87.4794,-0.81995 49.6145,-92.29589 -16.9812,-37.1297 7.5448,-5.673419 -68.5406,0.0078 -7.2001,0.0096 6.5358,6.127989 -4.7273,10.05409 -13.0852,25.9755 -50.6137,104.65964 11.0824,-7.2873 60.0582,-124.06983 4.7514,-9.64791 z"
         id="path40" /><path
         style="fill:#e4bc1b;fill-opacity:1"
         d="m 1921.2469,149.51983 -22.9022,40.53048 9.2342,-3.05211 22.546,-40.15122 z"
         id="path45" /><path
         style="display:inline;fill:#b3b3b3"
         d="m 1664.7622,217.6189 56.9775,0.51877 36.6372,-81.72515 -16.1841,-34.85687 -92.9111,0.16089 -53.7732,117.1038 5.8177,11.24722 58.9144,-3.53651 z"
         id="path41" /><path
         style="fill:#f9f9f9"
         d="m 1667.4457,201.97937 2.9962,-6.34796 8.6921,-5.33412 -10.4206,24.12527 52.5461,-0.11903 -4.383,6.5058 -50.1709,-1.35983 -5.059,10.28018 -59.0412,3.13185 2.1697,11.40222 -7.933,-10.62331 -5.3882,-12.84698 54.4995,-115.15052 -6.3485,-7.359007 112.8754,-0.82102 -5.0787,6.162847 14.5566,35.33377 -39.7913,81.99514 -5.692,-0.17252 38.4801,-80.15937 -15.0247,-36.56381 -25.1342,-0.16294 -20.4414,38.93211 -9.718,4.20444 4.2531,-8.82944 17.5144,-34.71471 -52.5654,0.39213 -55.3867,116.87761 3.4845,6.47212 56.2162,-3.36455 z"
         id="path42" /><path
         style="display:inline;fill:#b3b3b3"
         d="m 1790.7701,217.072 56.9775,0.51877 36.6372,-81.72515 -16.1841,-34.85687 -92.9111,0.16089 -53.7732,117.1038 5.8177,11.24722 58.9144,-3.53651 z"
         id="path43" /><path
         style="fill:#f9f9f9"
         d="m 1793.4536,201.43247 2.9962,-6.34796 8.6921,-5.33412 -10.4206,24.12527 52.5461,-0.11903 -4.383,6.5058 -50.1709,-1.35983 -5.059,10.28018 -59.0412,3.13185 2.1697,11.40222 -7.933,-10.62331 -5.3882,-12.84698 54.4995,-115.15052 -6.3485,-7.359001 112.8754,-0.82102 -5.0787,6.162841 14.5566,35.33377 -39.7913,81.99514 -5.692,-0.17252 38.4801,-80.15937 -15.0247,-36.56381 -25.1342,-0.16294 -20.4414,38.93211 -9.718,4.20444 4.2531,-8.82944 17.5144,-34.71471 -52.5654,0.39213 -55.3867,116.87761 3.4845,6.47212 56.2162,-3.36455 z"
         id="path44" /></g><g
       id="g28"><path
         style="fill:#b3b3b3;fill-opacity:1;stroke-width:1.20319;filter:url(#filter75)"
         d="m 1837.8944,455.55206 c -0.3059,0.50834 -2.574,10.12879 -5.0402,21.37858 -2.4661,11.2498 -5.0964,21.04832 -5.845,21.77444 -0.7487,0.72624 -5.6927,2.82003 -10.9867,4.65297 -5.294,1.83293 -13.0945,5.07889 -17.3344,7.2131 l -7.7091,3.8804 -18.4483,-11.84213 c -10.1468,-6.51321 -24.86,-15.75827 -25.7772,-15.75827 -0.9171,0 -2.2174,0.1311 -2.289,0.22943 l -31.5579,43.37216 12.0802,19.13753 12.0803,19.13765 -4.0337,7.64313 c -2.2184,4.20381 -5.7489,12.58377 -7.8456,18.62232 l -3.8121,10.97909 -17.6487,3.8147 c -9.7067,2.098 -19.6791,4.35229 -22.1606,5.00947 l -4.512,1.19476 -7.1886,50.26658 c -0.1417,0.99026 0.2582,2.73365 2.1706,3.72388 1.158,0.59954 18.4576,5.38442 29.7368,7.85973 l 20.5076,4.50053 2.1249,7.38588 c 1.1688,4.0622 4.4804,12.25879 7.3593,18.21457 l 5.2345,10.82868 -12.0567,18.94923 -12.0566,18.94936 31.0945,35.39173 c 2.2228,2.52992 7.5179,4.31518 8.4362,4.31518 0.9184,0 10.1102,-5.3339 20.4265,-11.85325 l 18.7568,-11.8532 9.2032,4.4714 c 5.0618,2.45932 12.9932,5.70095 17.6255,7.20373 4.6322,1.50278 8.5431,2.82484 8.6908,2.93782 0.1477,0.1131 -1.6566,23.04248 0.6876,33.924 2.3442,10.88153 6.5543,11.45249 8.1861,11.3925 l 2.2568,-0.0829 27.9022,-0.32301 27.9023,-0.32302 4.9002,-22.08913 4.9003,-22.08919 10.8286,-3.88581 c 5.9558,-2.1371 14.1127,-5.55488 18.1265,-7.59488 l 7.2978,-3.70906 30.1771,19.74782 c 3.0677,2.0715 8.0194,3.57948 8.6812,3.5864 1.4449,0.0152 39.8663,-36.94889 39.8232,-38.31234 -0.017,-0.52338 -5.4698,-9.55763 -12.1184,-20.07602 l -12.0882,-19.12417 3.8603,-7.59729 c 2.1232,-4.17855 5.6052,-12.45563 7.7377,-18.3936 l 3.8776,-10.79632 17.8863,-3.86548 c 9.8375,-2.12591 19.9267,-4.46635 22.4203,-5.20077 l 4.5341,-1.33542 -0.3229,-27.91923 -0.1427,-29.84469 -10.8286,-2.58949 c -5.9557,-1.42423 -16.196,-1.84522 -22.5357,-3.28905 l -11.5269,-2.62523 -2.7635,-8.62204 c -1.52,-4.74212 -4.8701,-12.82513 -7.4447,-17.96238 l -4.6811,-9.34034 11.6547,-19.71253 12.6631,-20.77303 -19.0208,-18.74384 c -10.9294,-10.77024 -25.0625,-24.29295 -25.7317,-24.27574 -0.6694,0.0168 -3.315,0.77047 -5.491,2.76611 l -28.5326,26.168 -8.9553,-4.49896 c -4.9254,-2.47435 -12.9491,-5.7386 -17.8305,-7.25389 l -8.8752,-2.75494 -2.5683,-11.46685 c -1.4126,-6.30675 -3.7311,-16.33964 -5.1521,-22.29542 l -2.5838,-10.82868 -8.1421,-3.66187 c -0.042,-0.0187 -47.8872,3.43285 -48.1932,3.94065 z m 54.6465,104.16267 c 28.3674,9.6297 49.8667,32.12401 57.775,60.44932 5.2125,18.66985 2.988,45.10904 -5.1407,61.09567 -17.3976,34.21635 -51.8986,53.39082 -88.7153,49.30492 -22.0462,-2.44668 -37.0961,-9.64379 -52.4602,-25.08741 -16.8202,-16.90743 -24.4945,-34.07294 -25.5756,-57.20637 -2.0632,-44.15312 25.7759,-80.86103 68.8813,-90.8251 11.6338,-2.68925 33.9227,-1.57125 45.2355,2.26897 z"
         id="path27-9" /><path
         style="fill:#ffffff;stroke-width:1.20319"
         d="m 1829.8754,451.70433 c -0.3059,0.50834 -2.574,10.12879 -5.0402,21.37858 -2.4661,11.2498 -5.0964,21.04832 -5.845,21.77444 -0.7487,0.72624 -5.6927,2.82003 -10.9867,4.65297 -5.294,1.83293 -13.0945,5.07889 -17.3344,7.2131 l -7.7091,3.8804 -18.4483,-11.84213 c -10.1468,-6.51321 -19.1988,-11.84212 -20.116,-11.84212 -0.9171,0 -10.1816,8.92921 -20.5877,19.84272 l -18.9204,19.84272 12.0802,19.13753 12.0803,19.13765 -4.0337,7.64313 c -2.2184,4.20381 -5.7489,12.58377 -7.8456,18.62232 l -3.8121,10.97909 -17.6487,3.8147 c -9.7067,2.098 -19.6791,4.35229 -22.1606,5.00947 l -4.512,1.19476 v 27.58463 c 0,25.0536 0.1932,27.68461 2.1056,28.67484 1.158,0.59954 11.334,3.11541 22.6132,5.59072 l 20.5076,4.50053 2.1249,7.38588 c 1.1688,4.0622 4.4804,12.25879 7.3593,18.21457 l 5.2345,10.82868 -12.0567,18.94923 -12.0566,18.94936 18.9305,19.85343 c 10.4118,10.9194 19.6819,19.85348 20.6002,19.85348 0.9184,0 10.1102,-5.3339 20.4265,-11.85325 l 18.7568,-11.8532 9.2032,4.4714 c 5.0618,2.45932 12.9932,5.70095 17.6255,7.20373 4.6322,1.50278 8.5431,2.82484 8.6908,2.93782 0.1477,0.1131 2.1866,9.10867 4.5308,19.99019 2.3442,10.88153 4.7882,21.01281 5.4309,22.51398 l 1.1688,2.72938 27.9022,-0.32301 27.9023,-0.32302 4.9002,-22.08913 4.9003,-22.08919 10.8286,-3.88581 c 5.9558,-2.1371 14.1127,-5.55488 18.1265,-7.59488 l 7.2978,-3.70906 18.5708,11.9024 c 10.2138,6.54642 19.1121,11.90815 19.7739,11.91507 1.4449,0.0152 40.3799,-37.43214 40.3368,-38.79559 -0.017,-0.52338 -5.4698,-9.55763 -12.1184,-20.07602 l -12.0882,-19.12417 3.8603,-7.59729 c 2.1232,-4.17855 5.6052,-12.45563 7.7377,-18.3936 l 3.8776,-10.79632 17.8863,-3.86548 c 9.8375,-2.12591 19.9267,-4.46635 22.4203,-5.20077 l 4.5341,-1.33542 -0.3229,-27.91923 -0.3229,-27.91912 -10.8286,-2.58949 c -5.9558,-1.4241 -16.0158,-3.77079 -22.3555,-5.21462 l -11.5269,-2.62523 -2.7635,-8.62204 c -1.52,-4.74212 -4.8701,-12.82513 -7.4447,-17.96238 l -4.6811,-9.34034 12.2289,-19.34677 12.229,-19.34688 -19.7139,-19.74105 c -10.8426,-10.85756 -20.2615,-19.72698 -20.9307,-19.70977 -0.6694,0.0168 -9.5542,5.32831 -19.7442,11.8023 l -18.5274,11.77114 -8.9553,-4.49896 c -4.9254,-2.47435 -12.9491,-5.7386 -17.8305,-7.25389 l -8.8752,-2.75494 -2.5683,-11.46685 c -1.4126,-6.30675 -3.7311,-16.33964 -5.1521,-22.29542 l -2.5838,-10.82868 -27.8896,-0.32282 c -15.3391,-0.17747 -28.1397,0.0938 -28.4457,0.6016 z m 54.6465,104.16267 c 28.3674,9.6297 49.8667,32.12401 57.775,60.44932 5.2125,18.66985 2.988,45.10904 -5.1407,61.09567 -17.3976,34.21635 -51.8986,53.39082 -88.7153,49.30492 -22.0462,-2.44668 -37.0961,-9.64379 -52.4602,-25.08741 -16.8202,-16.90743 -24.4945,-34.07294 -25.5756,-57.20637 -2.0632,-44.15312 25.7759,-80.86103 68.8813,-90.8251 11.6338,-2.68925 33.9227,-1.57125 45.2355,2.26897 z"
         id="path27" /></g></g></svg>
