<?xml version="1.0" encoding="UTF-8" standalone="no"?>
<!-- Created with Inkscape (http://www.inkscape.org/) -->

<svg
   width="660"
   height="930"
   viewBox="0 0 660 930.00001"
   version="1.1"
   id="svg1"
   xml:space="preserve"
   xmlns:xlink="http://www.w3.org/1999/xlink"
   xmlns="http://www.w3.org/2000/svg"
   xmlns:svg="http://www.w3.org/2000/svg"><defs
     id="defs1"><linearGradient
       id="linearGradient114"><stop
         style="stop-color:#333333;stop-opacity:1;"
         offset="0.60097265"
         id="stop116" /><stop
         style="stop-color:#2a2a2a;stop-opacity:1;"
         offset="1"
         id="stop115" /></linearGradient><filter
       style="color-interpolation-filters:sRGB"
       id="filter75"
       x="-0.12997309"
       y="-0.13005024"
       width="1.2958015"
       height="1.2901765"><feFlood
         result="flood"
         in="SourceGraphic"
         flood-opacity="0.341176"
         flood-color="rgb(0,0,0)"
         id="feFlood74" /><feGaussianBlur
         result="blur"
         in="SourceGraphic"
         stdDeviation="20.462362"
         id="feGaussianBlur74" /><feOffset
         result="offset"
         in="blur"
         dx="13.547751"
         dy="11.357330"
         id="feOffset74" /><feComposite
         result="comp1"
         operator="in"
         in="flood"
         in2="offset"
         id="feComposite74" /><feComposite
         result="comp2"
         operator="over"
         in="SourceGraphic"
         in2="comp1"
         id="feComposite75" /></filter><filter
       style="color-interpolation-filters:sRGB"
       id="filter101"
       x="-0.044233135"
       y="-0.10414323"
       width="1.1110491"
       height="1.2631653"><feFlood
         result="flood"
         in="SourceGraphic"
         flood-opacity="0.227451"
         flood-color="rgb(0,0,0)"
         id="feFlood100" /><feGaussianBlur
         result="blur"
         in="SourceGraphic"
         stdDeviation="7.104953"
         id="feGaussianBlur100" /><feOffset
         result="offset"
         in="blur"
         dx="8.705705"
         dy="8.985592"
         id="feOffset100" /><feComposite
         result="comp1"
         operator="in"
         in="flood"
         in2="offset"
         id="feComposite100" /><feComposite
         result="comp2"
         operator="over"
         in="SourceGraphic"
         in2="comp1"
         id="feComposite101" /></filter><radialGradient
       xlink:href="#linearGradient114"
       id="radialGradient116"
       cx="1857.9578"
       cy="501.34222"
       fx="1857.9578"
       fy="501.34222"
       r="332.00555"
       gradientTransform="matrix(1,0,0,1.4091969,0,-205.14769)"
       gradientUnits="userSpaceOnUse" /></defs><g
     id="g26"
     transform="translate(-1525.5961,-34.470679)"><rect
       style="fill:url(#radialGradient116);fill-opacity:1;fill-rule:nonzero;stroke-width:1.61712"
       id="rect21"
       width="664.01111"
       height="935.72241"
       x="1525.9523"
       y="33.480999" /><g
       id="g27"
       transform="matrix(1.2707396,0,0,1.2707396,-402.80323,6.9395952)"><path
         id="path75"
         style="fill:#ac8a00;fill-opacity:1;filter:url(#filter101)"
         d="m 1752.0887,96.176093 -112.8756,0.820757 6.3493,7.35915 -54.5004,115.1504 11.695,29.72555 7.934,10.62374 -2.1702,-11.40146 43.1942,-0.29203 14.6,-29.99914 49.9832,1.3541 -0.022,0.0446 11.6934,29.72709 7.934,10.6222 -2.1702,-11.40146 43.1943,-0.29203 14.5999,-29.99914 49.6066,1.34334 -17.3004,35.74751 11.0817,-7.28844 7.393,-15.26394 84.6394,-0.79309 49.6144,-92.29676 -16.9823,-37.12928 7.4098,-5.473252 -79.5212,-0.175217 -4.4096,5.872869 3.8132,0.0415 6.3202,10.25947 -8.3613,16.59958 -12.608,-27.26789 4.8431,-5.719172 -112.6405,0.376564 6.3494,7.359148 -12.2484,25.88152 -11.5167,-27.95493 z" /><path
         style="fill:#ac8a00;fill-opacity:1"
         d="m 1839.7378,229.68123 86.4072,-1.12175 47.2398,-90.24136 -19.5694,-39.38968 -64.0075,0.97395 7.0644,13.31313 z"
         id="path21" /><path
         style="fill:#e4bc1b;fill-opacity:1"
         d="m 1951.308,102.56035 c 0.3887,1.00446 18.2427,36.6966 18.2427,36.6966 l -46.8782,86.2714 -78.9619,0.7116 -0.3133,-6.03433 -3.929,12.57741 87.4794,-0.81995 49.6145,-92.29589 -16.9812,-37.1297 7.4086,-5.472489 -79.5205,-0.17575 -4.4092,5.873119 3.8121,0.0414 6.3216,10.25983 -13.0852,25.9755 -56.2745,116.26939 11.0824,-7.2873 65.719,-135.67958 -6.2975,-9.85365 z"
         id="path22" /><path
         style="fill:#b3b3b3"
         d="m 1664.3709,216.33182 56.9775,0.51877 36.6372,-81.72515 -16.1841,-34.85687 -92.9111,0.16089 -53.7732,117.1038 9.9905,29.06168 45.3992,-1.47963 z"
         id="path23" /><path
         style="fill:#f9f9f9"
         d="m 1667.0544,200.69229 2.9962,-6.34796 8.6921,-5.33412 -10.4206,24.12527 52.5461,-0.11903 -4.383,6.5058 -50.1709,-1.35983 -14.5999,29.99964 -43.1936,0.29171 2.1697,11.40222 -7.933,-10.62331 -11.6949,-29.7263 54.4995,-115.15052 -6.3485,-7.359009 112.8754,-0.82102 -5.0787,6.162849 14.5566,35.33377 -18.5604,37.22965 -8.2756,6.92186 19.8328,-42.48826 -15.0247,-36.56381 -25.1342,-0.16294 -20.4414,38.93211 -9.718,4.20444 4.2531,-8.82944 17.5144,-34.71471 -52.5654,0.39213 -55.3867,116.87761 9.7912,23.35144 40.3686,-0.52441 z"
         id="path24" /><path
         style="fill:#b3b3b3"
         d="m 1729.3412,246.63285 46.6262,-1.43116 13.2951,-31.09303 57.8681,2.15736 38.6625,-79.01223 -19.9362,-38.437 -92.4466,2.04041 -53.4641,117.47049 z"
         id="path25" /><path
         style="fill:#f9f9f9"
         d="m 1792.2678,200.7477 2.9962,-6.34796 8.692,-5.33412 -10.4206,24.12527 52.5462,-0.11903 -4.383,6.5058 -50.1709,-1.35983 -14.5999,29.99964 -43.1937,0.29171 2.1697,11.40222 -7.9329,-10.62331 -11.6949,-29.7263 54.4995,-115.15052 -6.3486,-7.359009 112.6405,-0.37706 -4.8437,5.718889 16.4421,35.56383 -37.3642,76.34084 -2.8309,5.53705 -7.3531,-0.12305 38.8752,-81.03588 -15.2404,-35.84956 -25.1343,-0.16294 -20.4414,38.93211 -9.718,4.20444 4.2532,-8.82944 17.5144,-34.71471 -52.5654,0.39213 -55.3868,116.87761 9.7912,23.35144 40.3687,-0.52441 z"
         id="path26" /></g><g
       id="g28"><path
         style="fill:#b3b3b3;fill-opacity:1;stroke-width:1.20319;filter:url(#filter75)"
         d="m 1837.8944,455.55206 c -0.3059,0.50834 -2.574,10.12879 -5.0402,21.37858 -2.4661,11.2498 -5.0964,21.04832 -5.845,21.77444 -0.7487,0.72624 -5.6927,2.82003 -10.9867,4.65297 -5.294,1.83293 -13.0945,5.07889 -17.3344,7.2131 l -7.7091,3.8804 -18.4483,-11.84213 c -10.1468,-6.51321 -19.1988,-11.84212 -20.116,-11.84212 -0.9171,0 -10.1816,8.92921 -20.5877,19.84272 l -18.9204,19.84272 12.0802,19.13753 12.0803,19.13765 -4.0337,7.64313 c -2.2184,4.20381 -5.7489,12.58377 -7.8456,18.62232 l -3.8121,10.97909 -17.6487,3.8147 c -9.7067,2.098 -19.6791,4.35229 -22.1606,5.00947 l -4.512,1.19476 v 27.58463 c 0,25.0536 0.1932,27.68461 2.1056,28.67484 1.158,0.59954 11.334,3.11541 22.6132,5.59072 l 20.5076,4.50053 2.1249,7.38588 c 1.1688,4.0622 4.4804,12.25879 7.3593,18.21457 l 5.2345,10.82868 -12.0567,18.94923 -12.0566,18.94936 18.9305,19.85343 c 10.4118,10.9194 19.6819,19.85348 20.6002,19.85348 0.9184,0 10.1102,-5.3339 20.4265,-11.85325 l 18.7568,-11.8532 9.2032,4.4714 c 5.0618,2.45932 12.9932,5.70095 17.6255,7.20373 4.6322,1.50278 8.5431,2.82484 8.6908,2.93782 0.1477,0.1131 2.1866,9.10867 4.5308,19.99019 2.3442,10.88153 4.7882,21.01281 5.4309,22.51398 l 1.1688,2.72938 27.9022,-0.32301 27.9023,-0.32302 4.9002,-22.08913 4.9003,-22.08919 10.8286,-3.88581 c 5.9558,-2.1371 14.1127,-5.55488 18.1265,-7.59488 l 7.2978,-3.70906 18.5708,11.9024 c 10.2138,6.54642 19.1121,11.90815 19.7739,11.91507 1.4449,0.0152 40.3799,-37.43214 40.3368,-38.79559 -0.017,-0.52338 -5.4698,-9.55763 -12.1184,-20.07602 l -12.0882,-19.12417 3.8603,-7.59729 c 2.1232,-4.17855 5.6052,-12.45563 7.7377,-18.3936 l 3.8776,-10.79632 17.8863,-3.86548 c 9.8375,-2.12591 19.9267,-4.46635 22.4203,-5.20077 l 4.5341,-1.33542 -0.3229,-27.91923 -0.3229,-27.91912 -10.8286,-2.58949 c -5.9558,-1.4241 -16.0158,-3.77079 -22.3555,-5.21462 l -11.5269,-2.62523 -2.7635,-8.62204 c -1.52,-4.74212 -4.8701,-12.82513 -7.4447,-17.96238 l -4.6811,-9.34034 12.2289,-19.34677 12.229,-19.34688 -19.7139,-19.74105 c -10.8426,-10.85756 -20.2615,-19.72698 -20.9307,-19.70977 -0.6694,0.0168 -9.5542,5.32831 -19.7442,11.8023 l -18.5274,11.77114 -8.9553,-4.49896 c -4.9254,-2.47435 -12.9491,-5.7386 -17.8305,-7.25389 l -8.8752,-2.75494 -2.5683,-11.46685 c -1.4126,-6.30675 -3.7311,-16.33964 -5.1521,-22.29542 l -2.5838,-10.82868 -27.8896,-0.32282 c -15.3391,-0.17747 -28.1397,0.0938 -28.4457,0.6016 z m 54.6465,104.16267 c 28.3674,9.6297 49.8667,32.12401 57.775,60.44932 5.2125,18.66985 2.988,45.10904 -5.1407,61.09567 -17.3976,34.21635 -51.8986,53.39082 -88.7153,49.30492 -22.0462,-2.44668 -37.0961,-9.64379 -52.4602,-25.08741 -16.8202,-16.90743 -24.4945,-34.07294 -25.5756,-57.20637 -2.0632,-44.15312 25.7759,-80.86103 68.8813,-90.8251 11.6338,-2.68925 33.9227,-1.57125 45.2355,2.26897 z"
         id="path27-9" /><path
         style="fill:#ffffff;stroke-width:1.20319"
         d="m 1829.8754,451.70433 c -0.3059,0.50834 -2.574,10.12879 -5.0402,21.37858 -2.4661,11.2498 -5.0964,21.04832 -5.845,21.77444 -0.7487,0.72624 -5.6927,2.82003 -10.9867,4.65297 -5.294,1.83293 -13.0945,5.07889 -17.3344,7.2131 l -7.7091,3.8804 -18.4483,-11.84213 c -10.1468,-6.51321 -19.1988,-11.84212 -20.116,-11.84212 -0.9171,0 -10.1816,8.92921 -20.5877,19.84272 l -18.9204,19.84272 12.0802,19.13753 12.0803,19.13765 -4.0337,7.64313 c -2.2184,4.20381 -5.7489,12.58377 -7.8456,18.62232 l -3.8121,10.97909 -17.6487,3.8147 c -9.7067,2.098 -19.6791,4.35229 -22.1606,5.00947 l -4.512,1.19476 v 27.58463 c 0,25.0536 0.1932,27.68461 2.1056,28.67484 1.158,0.59954 11.334,3.11541 22.6132,5.59072 l 20.5076,4.50053 2.1249,7.38588 c 1.1688,4.0622 4.4804,12.25879 7.3593,18.21457 l 5.2345,10.82868 -12.0567,18.94923 -12.0566,18.94936 18.9305,19.85343 c 10.4118,10.9194 19.6819,19.85348 20.6002,19.85348 0.9184,0 10.1102,-5.3339 20.4265,-11.85325 l 18.7568,-11.8532 9.2032,4.4714 c 5.0618,2.45932 12.9932,5.70095 17.6255,7.20373 4.6322,1.50278 8.5431,2.82484 8.6908,2.93782 0.1477,0.1131 2.1866,9.10867 4.5308,19.99019 2.3442,10.88153 4.7882,21.01281 5.4309,22.51398 l 1.1688,2.72938 27.9022,-0.32301 27.9023,-0.32302 4.9002,-22.08913 4.9003,-22.08919 10.8286,-3.88581 c 5.9558,-2.1371 14.1127,-5.55488 18.1265,-7.59488 l 7.2978,-3.70906 18.5708,11.9024 c 10.2138,6.54642 19.1121,11.90815 19.7739,11.91507 1.4449,0.0152 40.3799,-37.43214 40.3368,-38.79559 -0.017,-0.52338 -5.4698,-9.55763 -12.1184,-20.07602 l -12.0882,-19.12417 3.8603,-7.59729 c 2.1232,-4.17855 5.6052,-12.45563 7.7377,-18.3936 l 3.8776,-10.79632 17.8863,-3.86548 c 9.8375,-2.12591 19.9267,-4.46635 22.4203,-5.20077 l 4.5341,-1.33542 -0.3229,-27.91923 -0.3229,-27.91912 -10.8286,-2.58949 c -5.9558,-1.4241 -16.0158,-3.77079 -22.3555,-5.21462 l -11.5269,-2.62523 -2.7635,-8.62204 c -1.52,-4.74212 -4.8701,-12.82513 -7.4447,-17.96238 l -4.6811,-9.34034 12.2289,-19.34677 12.229,-19.34688 -19.7139,-19.74105 c -10.8426,-10.85756 -20.2615,-19.72698 -20.9307,-19.70977 -0.6694,0.0168 -9.5542,5.32831 -19.7442,11.8023 l -18.5274,11.77114 -8.9553,-4.49896 c -4.9254,-2.47435 -12.9491,-5.7386 -17.8305,-7.25389 l -8.8752,-2.75494 -2.5683,-11.46685 c -1.4126,-6.30675 -3.7311,-16.33964 -5.1521,-22.29542 l -2.5838,-10.82868 -27.8896,-0.32282 c -15.3391,-0.17747 -28.1397,0.0938 -28.4457,0.6016 z m 54.6465,104.16267 c 28.3674,9.6297 49.8667,32.12401 57.775,60.44932 5.2125,18.66985 2.988,45.10904 -5.1407,61.09567 -17.3976,34.21635 -51.8986,53.39082 -88.7153,49.30492 -22.0462,-2.44668 -37.0961,-9.64379 -52.4602,-25.08741 -16.8202,-16.90743 -24.4945,-34.07294 -25.5756,-57.20637 -2.0632,-44.15312 25.7759,-80.86103 68.8813,-90.8251 11.6338,-2.68925 33.9227,-1.57125 45.2355,2.26897 z"
         id="path27" /></g></g></svg>
