<svg xmlns="http://www.w3.org/2000/svg" viewBox="0 0 64 64" width="64" height="64">
  <path d="M32 0C14.3 0 0 14.3 0 32s14.3 32 32 32 32-14.3 32-32S49.7 0 32 0zm0 60C16.6 60 4 47.4 4 32S16.6 4 32 4s28 12.6 28 28-12.6 28-28 28z" fill="#000"/>
  <path d="M32 8c-13.3 0-24 10.7-24 24s10.7 24 24 24 24-10.7 24-24-10.7-24-24-24zm0 44c-11 0-20-9-20-20s9-20 20-20 20 9 20 20-9 20-20 20z" fill="#107C10"/>
  <path d="M32 12c-11.1 0-20 8.9-20 20s8.9 20 20 20 20-8.9 20-20-8.9-20-20-20zm0 36c-8.8 0-16-7.2-16-16s7.2-16 16-16 16 7.2 16 16-7.2 16-16 16z" fill="#fff"/>
  <path d="M32 16c-8.8 0-16 7.2-16 16s7.2 16 16 16 16-7.2 16-16-7.2-16-16-16zm0 28c-6.6 0-12-5.4-12-12s5.4-12 12-12 12 5.4 12 12-5.4 12-12 12z" fill="#000"/>
</svg>